<svg width="24" height="20" viewBox="0 0 24 20" fill="none" xmlns="http://www.w3.org/2000/svg">
<path d="M12.8578 20C12.7493 20.0002 12.6417 19.9832 12.5407 19.95C12.4003 19.9033 12.2772 19.8266 12.1838 19.7275C12.0905 19.6284 12.0303 19.5105 12.0093 19.3857L11.1522 14.3857L12.8664 14.1857L13.5092 17.95L16.2862 16.0857V10.7143C16.2855 10.6203 16.3071 10.5271 16.3498 10.4401C16.3924 10.3531 16.4553 10.2739 16.5347 10.2072L20.0231 7.30003C20.7418 6.70507 21.3119 5.99722 21.7003 5.21745C22.0887 4.43768 22.2877 3.60146 22.2858 2.75718V1.42861H20.6916C19.6785 1.42701 18.6751 1.59284 17.7395 1.91652C16.8038 2.2402 15.9544 2.7153 15.2405 3.31432L11.7522 6.22146C11.6721 6.28766 11.5771 6.34003 11.4727 6.37558C11.3683 6.41113 11.2564 6.42914 11.1436 6.4286H4.69836L2.46136 8.75717L6.97821 9.29288L6.73822 10.7214L0.738615 10.0072C0.588918 9.98967 0.447438 9.93948 0.328524 9.86171C0.20961 9.78393 0.117493 9.68133 0.0615165 9.56431C0.00484679 9.44647 -0.0131141 9.31817 0.00948281 9.19263C0.0320797 9.06708 0.0944179 8.94882 0.19008 8.85002L3.61843 5.2786C3.69738 5.19311 3.79855 5.12363 3.91433 5.07539C4.03012 5.02714 4.15751 5.00138 4.28695 5.00003H10.7922L14.0235 2.30004C14.897 1.56797 15.9362 0.987709 17.0808 0.592893C18.2255 0.198077 19.4528 -0.00343365 20.6916 4.42627e-05H22.2858C22.7404 4.42627e-05 23.1764 0.150554 23.4979 0.418462C23.8193 0.686371 23.9999 1.04973 23.9999 1.42861V2.75718C24.0041 3.78958 23.7623 4.81241 23.2886 5.76634C22.8148 6.72027 22.1186 7.58634 21.2401 8.31431L18.0003 11.0072V16.4286C17.9997 16.5359 17.9702 16.6417 17.9138 16.7381C17.8574 16.8346 17.7757 16.9192 17.6746 16.9857L13.3892 19.8429C13.2384 19.9437 13.0511 19.9991 12.8578 20Z" fill="white"/>
</svg>
