<svg width="22" height="22" viewBox="0 0 22 22" fill="none" xmlns="http://www.w3.org/2000/svg">
<circle cx="11" cy="11" r="11" fill="#FF9800"/>
<path d="M15.9918 8.0746H14.7484L14.0619 7.03837C13.8028 6.64978 13.3495 6.41663 12.8832 6.41663H10.0335C9.56721 6.41663 9.11386 6.64978 8.8548 7.03837L8.1683 8.0746H6.92482C6.13469 8.0746 5.5 8.70929 5.5 9.49942V14.5251C5.5 15.3153 6.13469 15.95 6.92482 15.95H15.9918C16.782 15.95 17.4167 15.3153 17.4167 14.5251V9.49942C17.4167 8.70929 16.782 8.0746 15.9918 8.0746ZM11.4583 14.7842C9.68379 14.7842 8.24601 13.3464 8.24601 11.5719C8.24601 9.79733 9.68379 8.37251 11.4583 8.37251C13.2329 8.37251 14.6707 9.81029 14.6707 11.5848C14.6707 13.3464 13.2329 14.7842 11.4583 14.7842ZM15.8105 10.0823C15.7976 10.0823 15.7846 10.0823 15.7587 10.0823H15.2406C15.0074 10.0693 14.8261 9.87505 14.839 9.6419C14.852 9.4217 15.0204 9.25331 15.2406 9.24036H15.7587C15.9918 9.2274 16.1861 9.40875 16.1991 9.6419C16.212 9.87505 16.0437 10.0693 15.8105 10.0823Z" fill="white"/>
<path d="M11.4577 9.79724C10.4732 9.79724 9.67017 10.6003 9.67017 11.5847C9.67017 12.5692 10.4732 13.3593 11.4577 13.3593C12.4421 13.3593 13.2452 12.5562 13.2452 11.5718C13.2452 10.5874 12.4421 9.79724 11.4577 9.79724Z" fill="white"/>
</svg>
