<svg width="24" height="24" viewBox="0 0 24 24" fill="none" xmlns="http://www.w3.org/2000/svg">
<path d="M15.0001 4.5C13.9671 4.49951 12.9453 4.7146 12.0001 5.1315C10.8588 4.6316 9.61084 4.42396 8.36911 4.52737C7.12738 4.63077 5.93098 5.04195 4.88803 5.72375C3.84508 6.40554 2.98845 7.33647 2.39556 8.4324C1.80266 9.52833 1.49219 10.7547 1.49219 12.0008C1.49219 13.2468 1.80266 14.4732 2.39556 15.5691C2.98845 16.665 3.84508 17.596 4.88803 18.2778C5.93098 18.9596 7.12738 19.3707 8.36911 19.4741C9.61084 19.5775 10.8588 19.3699 12.0001 18.87C13.0218 19.3163 14.1301 19.5291 15.2444 19.4931C16.3587 19.457 17.4509 19.1729 18.4416 18.6615C19.4322 18.15 20.2964 17.4241 20.9711 16.5366C21.6459 15.6491 22.1142 14.6223 22.342 13.5309C22.5699 12.4396 22.5515 11.3111 22.2882 10.2278C22.0249 9.14442 21.5234 8.13341 20.8201 7.26833C20.1168 6.40326 19.2295 5.70589 18.2227 5.227C17.2159 4.74811 16.115 4.49975 15.0001 4.5ZM9.00012 18C8.15439 18.0031 7.31757 17.8273 6.54454 17.4843C5.7715 17.1413 5.07972 16.6387 4.51457 16.0095C3.94942 15.3803 3.52367 14.6388 3.26523 13.8335C3.0068 13.0282 2.92153 12.1774 3.01501 11.3368C3.1085 10.4963 3.37862 9.68499 3.80767 8.95617C4.23672 8.22735 4.815 7.59747 5.50458 7.10784C6.19416 6.61821 6.97947 6.27989 7.80898 6.11508C8.6385 5.95026 9.49349 5.96267 10.3179 6.1515C9.43885 6.85208 8.72903 7.74177 8.24117 8.75444C7.75332 9.7671 7.49998 10.8767 7.49998 12.0008C7.49998 13.1248 7.75332 14.2344 8.24117 15.2471C8.72903 16.2597 9.43885 17.1494 10.3179 17.85C9.88551 17.9485 9.44356 17.9989 9.00012 18ZM15.0001 18C14.5567 17.9989 14.1147 17.9485 13.6824 17.85C14.5615 17.1494 15.2715 16.2597 15.7594 15.247C16.2473 14.2342 16.5007 13.1245 16.5007 12.0004C16.5007 10.8762 16.2473 9.76653 15.7594 8.75379C15.2715 7.74105 14.5615 6.85132 13.6824 6.15075C14.5053 5.96563 15.3579 5.95614 16.1847 6.12292C17.0115 6.2897 17.7939 6.62899 18.4806 7.11864C19.1674 7.60829 19.7432 8.23729 20.1704 8.96457C20.5976 9.69184 20.8666 10.501 20.9598 11.3393C21.053 12.1776 20.9684 13.0261 20.7114 13.8295C20.4545 14.6329 20.0309 15.373 19.4685 16.0016C18.9061 16.6301 18.2174 17.133 17.4475 17.4774C16.6775 17.8217 15.8436 17.9998 15.0001 18Z" fill="black"/>
</svg>
