<svg width="16" height="16" viewBox="0 0 16 16" fill="none" xmlns="http://www.w3.org/2000/svg">
<path d="M1.49995 5.5H14.5M1.10683 5.88156L7.59902 14.3022C7.6462 14.3637 7.7069 14.4135 7.77643 14.4478C7.84595 14.4821 7.92243 14.4999 7.99995 14.4999C8.07748 14.4999 8.15396 14.4821 8.22348 14.4478C8.29301 14.4135 8.35371 14.3637 8.40089 14.3022L14.8931 5.88156C14.9569 5.79845 14.9939 5.69788 14.9992 5.59322C15.0045 5.48856 14.9779 5.38476 14.9228 5.29563L12.7206 1.74094C12.6752 1.66737 12.6119 1.60662 12.5364 1.56445C12.461 1.52228 12.3761 1.5001 12.2896 1.5H3.71027C3.62385 1.5001 3.5389 1.52228 3.46348 1.56445C3.38806 1.60662 3.32467 1.66737 3.27933 1.74094L1.07714 5.29563C1.02203 5.38476 0.995359 5.48856 1.00066 5.59322C1.00596 5.69788 1.04299 5.79845 1.10683 5.88156Z" stroke="black" stroke-linecap="round" stroke-linejoin="round"/>
<path d="M12.5 2L11 5.5M11 5.5L8 1.5L5 5.5M11 5.5L8 14L5 5.5M3.5 2L5 5.5" stroke="black" stroke-linecap="round" stroke-linejoin="round"/>
</svg>
