<svg width="20" height="20" viewBox="0 0 20 20" fill="none" xmlns="http://www.w3.org/2000/svg">
<path d="M12.0833 9.16536C12.0833 9.7179 11.8638 10.2478 11.4731 10.6385C11.0824 11.0292 10.5525 11.2487 9.99999 11.2487C9.44746 11.2487 8.91755 11.0292 8.52685 10.6385C8.13615 10.2478 7.91666 9.7179 7.91666 9.16536C7.91666 8.61283 8.13615 8.08293 8.52685 7.69223C8.91755 7.30152 9.44746 7.08203 9.99999 7.08203C10.5525 7.08203 11.0824 7.30152 11.4731 7.69223C11.8638 8.08293 12.0833 8.61283 12.0833 9.16536Z" stroke="white" stroke-width="1.25" stroke-linecap="round" stroke-linejoin="round"/>
<path d="M18.3333 9.16536V4.93786C18.3333 4.46453 18.0633 4.0362 17.6108 3.8962C16.825 3.6512 15.3992 3.33203 13.3333 3.33203C9.51666 3.33203 8.49749 4.72953 3.23166 3.68536C2.43416 3.52703 1.66666 4.11953 1.66666 4.93203V13.2795C1.66666 13.8529 2.06082 14.357 2.62082 14.4804C5.85832 15.1945 7.58499 15.042 9.16666 14.7679" stroke="white" stroke-width="1.25" stroke-linecap="round" stroke-linejoin="round"/>
<path d="M1.66666 6.66667C3.29249 6.66667 4.75416 5.3375 4.94082 3.96167M15.4167 3.75C15.4167 5.45 16.8875 7.0575 18.3333 7.0575M4.99999 14.58C4.99999 13.6959 4.6488 12.8481 4.02368 12.223C3.39856 11.5979 2.55071 11.2467 1.66666 11.2467M11.6667 15C11.6667 15 12.5 15 13.3333 16.6667C13.3333 16.6667 15.9808 12.5 18.3333 11.6667" stroke="white" stroke-width="1.25" stroke-linecap="round" stroke-linejoin="round"/>
</svg>
