<svg width="20" height="13" viewBox="0 0 20 13" fill="none" xmlns="http://www.w3.org/2000/svg">
<path d="M19.8729 5.98463C19.6942 5.74021 15.4371 0 9.99991 0C4.56275 0 0.305392 5.74021 0.126914 5.98439C-0.0423048 6.21627 -0.0423048 6.53076 0.126914 6.76264C0.305392 7.00705 4.56275 12.7473 9.99991 12.7473C15.4371 12.7473 19.6942 7.00701 19.8729 6.76283C20.0424 6.531 20.0424 6.21627 19.8729 5.98463ZM9.99991 11.4286C5.99486 11.4286 2.52606 7.61869 1.49922 6.37318C2.52473 5.12658 5.98627 1.31868 9.99991 1.31868C14.0048 1.31868 17.4733 5.1279 18.5006 6.37408C17.4751 7.62065 14.0136 11.4286 9.99991 11.4286Z" fill="#868889"/>
<path d="M9.99975 2.92957C8.10072 2.92957 6.55566 4.47462 6.55566 6.37366C6.55566 8.27269 8.10072 9.81775 9.99975 9.81775C11.8988 9.81775 13.4438 8.27269 13.4438 6.37366C13.4438 4.47462 11.8988 2.92957 9.99975 2.92957ZM9.99975 8.66969C8.73366 8.66969 7.70372 7.63971 7.70372 6.37366C7.70372 5.1076 8.7337 4.07762 9.99975 4.07762C11.2658 4.07762 12.2958 5.1076 12.2958 6.37366C12.2958 7.63971 11.2658 8.66969 9.99975 8.66969Z" fill="#868889"/>
</svg>
