<svg width="20" height="13" viewBox="0 0 20 13" fill="none" xmlns="http://www.w3.org/2000/svg">
<path d="M19.8729 5.98463C19.6942 5.74021 15.4371 0 9.99991 0C4.56275 0 0.305392 5.74021 0.126914 5.98439C-0.0423048 6.21627 -0.0423048 6.53076 0.126914 6.76264C0.305392 7.00705 4.56275 12.7473 9.99991 12.7473C15.4371 12.7473 19.6942 7.00701 19.8729 6.76283C20.0424 6.531 20.0424 6.21627 19.8729 5.98463ZM9.99991 11.4286C4.08007 11.4286 4.08007 1.31868 9.99991 1.31868C15.9198 1.31868 15.9198 11.4286 9.99991 11.4286Z" fill="#868889"/>
<path d="M9.99988 2.92957C8.10084 2.92957 6.55579 4.47462 6.55579 6.37366C6.55579 8.27269 8.10084 9.81775 9.99988 9.81775C11.8989 9.81775 13.444 8.27269 13.444 6.37366C13.444 4.47462 11.8989 2.92957 9.99988 2.92957ZM9.99988 8.66969C8.73378 8.66969 7.70384 7.63971 7.70384 6.37366C7.70384 5.1076 8.73382 4.07762 9.99988 4.07762C11.2659 4.07762 12.2959 5.1076 12.2959 6.37366C12.2959 7.63971 11.266 8.66969 9.99988 8.66969Z" fill="#868889"/>
</svg>
