<svg width="20" height="20" viewBox="0 0 20 20" fill="none" xmlns="http://www.w3.org/2000/svg">
<path d="M10.8333 17.5013H5.83332C5.3913 17.5013 4.96737 17.3257 4.65481 17.0131C4.34225 16.7006 4.16666 16.2767 4.16666 15.8346V10.8346C4.16666 10.3926 4.34225 9.96869 4.65481 9.65612C4.96737 9.34356 5.3913 9.16797 5.83332 9.16797H14.1667" stroke="white" stroke-width="1.66667" stroke-linecap="round" stroke-linejoin="round"/>
<path d="M6.66666 9.16667V5.83333C6.66666 4.94928 7.01785 4.10143 7.64297 3.47631C8.26809 2.85119 9.11593 2.5 9.99999 2.5C10.884 2.5 11.7319 2.85119 12.357 3.47631C12.9821 4.10143 13.3333 4.94928 13.3333 5.83333V9.16667M17.5 12.5H15.4167C15.0851 12.5 14.7672 12.6317 14.5328 12.8661C14.2984 13.1005 14.1667 13.4185 14.1667 13.75C14.1667 14.0815 14.2984 14.3995 14.5328 14.6339C14.7672 14.8683 15.0851 15 15.4167 15H16.25C16.5815 15 16.8995 15.1317 17.1339 15.3661C17.3683 15.6005 17.5 15.9185 17.5 16.25C17.5 16.5815 17.3683 16.8995 17.1339 17.1339C16.8995 17.3683 16.5815 17.5 16.25 17.5H14.1667M15.8333 17.5V18.3333M15.8333 11.6667V12.5M9.16666 13.3333C9.16666 13.5543 9.25445 13.7663 9.41073 13.9226C9.56701 14.0789 9.77898 14.1667 9.99999 14.1667C10.221 14.1667 10.433 14.0789 10.5892 13.9226C10.7455 13.7663 10.8333 13.5543 10.8333 13.3333C10.8333 13.1123 10.7455 12.9004 10.5892 12.7441C10.433 12.5878 10.221 12.5 9.99999 12.5C9.77898 12.5 9.56701 12.5878 9.41073 12.7441C9.25445 12.9004 9.16666 13.1123 9.16666 13.3333Z" stroke="white" stroke-width="1.66667" stroke-linecap="round" stroke-linejoin="round"/>
</svg>
