<svg width="20" height="20" viewBox="0 0 20 20" fill="none" xmlns="http://www.w3.org/2000/svg">
<path fill-rule="evenodd" clip-rule="evenodd" d="M5 9C5.53043 9 6.03914 8.78929 6.41421 8.41421C6.78929 8.03914 7 7.53043 7 7C7 6.46957 6.78929 5.96086 6.41421 5.58579C6.03914 5.21071 5.53043 5 5 5C4.46957 5 3.96086 5.21071 3.58579 5.58579C3.21071 5.96086 3 6.46957 3 7C3 7.53043 3.21071 8.03914 3.58579 8.41421C3.96086 8.78929 4.46957 9 5 9ZM5 10C5.39397 10 5.78407 9.9224 6.14805 9.77164C6.51203 9.62087 6.84274 9.3999 7.12132 9.12132C7.3999 8.84274 7.62087 8.51203 7.77164 8.14805C7.9224 7.78407 8 7.39397 8 7C8 6.60603 7.9224 6.21593 7.77164 5.85195C7.62087 5.48797 7.3999 5.15726 7.12132 4.87868C6.84274 4.6001 6.51203 4.37913 6.14805 4.22836C5.78407 4.0776 5.39397 4 5 4C4.20435 4 3.44129 4.31607 2.87868 4.87868C2.31607 5.44129 2 6.20435 2 7C2 7.79565 2.31607 8.55871 2.87868 9.12132C3.44129 9.68393 4.20435 10 5 10Z" fill="#008BB2"/>
<path fill-rule="evenodd" clip-rule="evenodd" d="M3.854 8.89611C3.90056 8.94256 3.93751 8.99773 3.96271 9.05848C3.98792 9.11922 4.00089 9.18435 4.00089 9.25011C4.00089 9.31588 3.98792 9.381 3.96271 9.44175C3.93751 9.50249 3.90056 9.55767 3.854 9.60411L3.516 9.94111C2.86554 10.5918 2.50009 11.4741 2.5 12.3941V14.2501C2.5 14.3827 2.44732 14.5099 2.35355 14.6037C2.25979 14.6974 2.13261 14.7501 2 14.7501C1.86739 14.7501 1.74021 14.6974 1.64645 14.6037C1.55268 14.5099 1.5 14.3827 1.5 14.2501V12.3941C1.50014 11.2089 1.97099 10.0723 2.809 9.23411L3.146 8.89611C3.19245 8.84955 3.24762 8.81261 3.30837 8.7874C3.36911 8.76219 3.43423 8.74922 3.5 8.74922C3.56577 8.74922 3.63089 8.76219 3.69163 8.7874C3.75238 8.81261 3.80755 8.84955 3.854 8.89611ZM15.646 8.59611C15.5994 8.64256 15.5625 8.69773 15.5373 8.75848C15.5121 8.81922 15.4991 8.88435 15.4991 8.95011C15.4991 9.01588 15.5121 9.081 15.5373 9.14175C15.5625 9.20249 15.5994 9.25767 15.646 9.30411L15.984 9.64111C16.6345 10.2918 16.9999 11.1741 17 12.0941V14.2501C17 14.3827 17.0527 14.5099 17.1464 14.6037C17.2402 14.6974 17.3674 14.7501 17.5 14.7501C17.6326 14.7501 17.7598 14.6974 17.8536 14.6037C17.9473 14.5099 18 14.3827 18 14.2501V12.0941C17.9999 10.9089 17.529 9.77225 16.691 8.93411L16.354 8.59611C16.3076 8.54955 16.2524 8.51261 16.1916 8.4874C16.1309 8.46219 16.0658 8.44922 16 8.44922C15.9342 8.44922 15.8691 8.46219 15.8084 8.4874C15.7476 8.51261 15.6924 8.54955 15.646 8.59611Z" fill="#008BB2"/>
<path fill-rule="evenodd" clip-rule="evenodd" d="M14 9C13.4696 9 12.9609 8.78929 12.5858 8.41421C12.2107 8.03914 12 7.53043 12 7C12 6.46957 12.2107 5.96086 12.5858 5.58579C12.9609 5.21071 13.4696 5 14 5C14.5304 5 15.0391 5.21071 15.4142 5.58579C15.7893 5.96086 16 6.46957 16 7C16 7.53043 15.7893 8.03914 15.4142 8.41421C15.0391 8.78929 14.5304 9 14 9ZM14 10C13.606 10 13.2159 9.9224 12.8519 9.77164C12.488 9.62087 12.1573 9.3999 11.8787 9.12132C11.6001 8.84274 11.3791 8.51203 11.2284 8.14805C11.0776 7.78407 11 7.39397 11 7C11 6.60603 11.0776 6.21593 11.2284 5.85195C11.3791 5.48797 11.6001 5.15726 11.8787 4.87868C12.1573 4.6001 12.488 4.37913 12.8519 4.22836C13.2159 4.0776 13.606 4 14 4C14.7956 4 15.5587 4.31607 16.1213 4.87868C16.6839 5.44129 17 6.20435 17 7C17 7.79565 16.6839 8.55871 16.1213 9.12132C15.5587 9.68393 14.7956 10 14 10ZM9.5 13.25C8.83696 13.25 8.20107 13.5134 7.73223 13.9822C7.26339 14.4511 7 15.087 7 15.75V17.05C7 17.1826 6.94732 17.3098 6.85355 17.4036C6.75979 17.4973 6.63261 17.55 6.5 17.55C6.36739 17.55 6.24021 17.4973 6.14645 17.4036C6.05268 17.3098 6 17.1826 6 17.05V15.75C6 14.8217 6.36875 13.9315 7.02513 13.2751C7.6815 12.6187 8.57174 12.25 9.5 12.25C10.4283 12.25 11.3185 12.6187 11.9749 13.2751C12.6313 13.9315 13 14.8217 13 15.75V17.05C13 17.1826 12.9473 17.3098 12.8536 17.4036C12.7598 17.4973 12.6326 17.55 12.5 17.55C12.3674 17.55 12.2402 17.4973 12.1464 17.4036C12.0527 17.3098 12 17.1826 12 17.05V15.75C12 15.4217 11.9353 15.0966 11.8097 14.7933C11.6841 14.49 11.4999 14.2144 11.2678 13.9822C11.0356 13.7501 10.76 13.5659 10.4567 13.4403C10.1534 13.3147 9.8283 13.25 9.5 13.25Z" fill="#008BB2"/>
<path fill-rule="evenodd" clip-rule="evenodd" d="M9.5 11.75C10.0304 11.75 10.5391 11.5393 10.9142 11.1642C11.2893 10.7891 11.5 10.2804 11.5 9.75C11.5 9.21957 11.2893 8.71086 10.9142 8.33579C10.5391 7.96071 10.0304 7.75 9.5 7.75C8.96957 7.75 8.46086 7.96071 8.08579 8.33579C7.71071 8.71086 7.5 9.21957 7.5 9.75C7.5 10.2804 7.71071 10.7891 8.08579 11.1642C8.46086 11.5393 8.96957 11.75 9.5 11.75ZM9.5 12.75C10.2956 12.75 11.0587 12.4339 11.6213 11.8713C12.1839 11.3087 12.5 10.5456 12.5 9.75C12.5 8.95435 12.1839 8.19129 11.6213 7.62868C11.0587 7.06607 10.2956 6.75 9.5 6.75C8.70435 6.75 7.94129 7.06607 7.37868 7.62868C6.81607 8.19129 6.5 8.95435 6.5 9.75C6.5 10.5456 6.81607 11.3087 7.37868 11.8713C7.94129 12.4339 8.70435 12.75 9.5 12.75Z" fill="#008BB2"/>
</svg>
