<svg width="20" height="20" viewBox="0 0 20 20" fill="none" xmlns="http://www.w3.org/2000/svg">
<path d="M16.6667 3.75H3.33333C3.11232 3.75 2.90036 3.8378 2.74408 3.99408C2.5878 4.15036 2.5 4.36232 2.5 4.58333V17.0833C2.5 17.3043 2.5878 17.5163 2.74408 17.6726C2.90036 17.8289 3.11232 17.9167 3.33333 17.9167H16.6667C16.8877 17.9167 17.0996 17.8289 17.2559 17.6726C17.4122 17.5163 17.5 17.3043 17.5 17.0833V4.58333C17.5 4.36232 17.4122 4.15036 17.2559 3.99408C17.0996 3.8378 16.8877 3.75 16.6667 3.75Z" stroke="white" stroke-width="1.66667" stroke-linejoin="round"/>
<path d="M6.25 2.08203V3.7487M13.75 2.08203V3.7487M2.5 7.08203H17.5M7.5 12.4987H12.5M10 9.9987V14.9987M2.5 4.58203V9.58203M17.5 4.58203V9.58203" stroke="white" stroke-width="1.66667" stroke-linecap="round"/>
</svg>
