<svg width="18" height="18" viewBox="0 0 18 18" fill="none" xmlns="http://www.w3.org/2000/svg">
<path d="M13.2001 12.6H15.0001V10.8M13.2001 5.4H15.0001V7.2M4.8001 5.4H3.0001V7.2M3.0001 10.8V12.6H4.8001M9.0001 11.4C8.36358 11.4 7.75313 11.1471 7.30304 10.6971C6.85295 10.247 6.6001 9.63652 6.6001 9C6.6001 8.36348 6.85295 7.75303 7.30304 7.30294C7.75313 6.85286 8.36358 6.6 9.0001 6.6C9.63662 6.6 10.2471 6.85286 10.6972 7.30294C11.1472 7.75303 11.4001 8.36348 11.4001 9C11.4001 9.63652 11.1472 10.247 10.6972 10.6971C10.2471 11.1471 9.63662 11.4 9.0001 11.4ZM1.8001 3H16.2001C16.5184 3 16.8236 3.12643 17.0486 3.35147C17.2737 3.57652 17.4001 3.88174 17.4001 4.2V13.8C17.4001 14.1183 17.2737 14.4235 17.0486 14.6485C16.8236 14.8736 16.5184 15 16.2001 15H1.8001C1.48184 15 1.17661 14.8736 0.95157 14.6485C0.726526 14.4235 0.600098 14.1183 0.600098 13.8V4.2C0.600098 3.88174 0.726526 3.57652 0.95157 3.35147C1.17661 3.12643 1.48184 3 1.8001 3Z" stroke="white" stroke-width="1.2"/>
</svg>
