<svg width="24" height="24" viewBox="0 0 24 24" fill="none" xmlns="http://www.w3.org/2000/svg">
<path d="M11.336 2.25324C11.519 2.09073 11.7553 2.00098 12 2.00098C12.2447 2.00098 12.481 2.09073 12.664 2.25324L21.664 10.2532C21.8521 10.432 21.9634 10.6768 21.9744 10.9361C21.9853 11.1953 21.8951 11.4487 21.7227 11.6426C21.5503 11.8366 21.3093 11.9559 21.0505 11.9754C20.7917 11.9949 20.5355 11.9131 20.336 11.7472L20 11.4502V19.0002C20 19.5307 19.7893 20.0394 19.4142 20.4145C19.0391 20.7895 18.5304 21.0002 18 21.0002H6C5.46957 21.0002 4.96086 20.7895 4.58579 20.4145C4.21071 20.0394 4 19.5307 4 19.0002V11.4502L3.664 11.7472C3.46446 11.9131 3.20825 11.9949 2.9495 11.9754C2.69075 11.9559 2.44972 11.8366 2.27732 11.6426C2.10493 11.4487 2.01467 11.1953 2.02562 10.9361C2.03657 10.6768 2.14787 10.432 2.336 10.2532L11.336 2.25324ZM6 9.67024V19.0002H9V14.0002C9 13.735 9.10536 13.4807 9.29289 13.2931C9.48043 13.1056 9.73478 13.0002 10 13.0002H14C14.2652 13.0002 14.5196 13.1056 14.7071 13.2931C14.8946 13.4807 15 13.735 15 14.0002V19.0002H18V9.67124L12 4.33824L6 9.67024ZM13 19.0002V15.0002H11V19.0002H13Z" fill="black"/>
</svg>
