<svg width="20" height="20" viewBox="0 0 20 20" fill="none" xmlns="http://www.w3.org/2000/svg">
<path d="M7.91669 2.5H12.0834C12.4149 2.5 12.7328 2.6317 12.9672 2.86612C13.2017 3.10054 13.3334 3.41848 13.3334 3.75C13.3334 4.52355 13.0261 5.26541 12.4791 5.81239C11.9321 6.35938 11.1902 6.66667 10.4167 6.66667H9.58335C8.80981 6.66667 8.06794 6.35938 7.52096 5.81239C6.97398 5.26541 6.66669 4.52355 6.66669 3.75C6.66669 3.41848 6.79838 3.10054 7.0328 2.86612C7.26722 2.6317 7.58517 2.5 7.91669 2.5Z" stroke="white" stroke-width="1.66667" stroke-linecap="round" stroke-linejoin="round"/>
<path d="M3.33334 14.168V13.3346C3.33334 11.5665 4.03572 9.87083 5.28596 8.62059C6.53621 7.37035 8.2319 6.66797 10 6.66797C11.7681 6.66797 13.4638 7.37035 14.7141 8.62059C15.9643 9.87083 16.6667 11.5665 16.6667 13.3346V14.168C16.6667 15.052 16.3155 15.8999 15.6904 16.525C15.0652 17.1501 14.2174 17.5013 13.3333 17.5013H6.66668C5.78262 17.5013 4.93478 17.1501 4.30965 16.525C3.68453 15.8999 3.33334 15.052 3.33334 14.168Z" stroke="white" stroke-width="1.66667" stroke-linecap="round" stroke-linejoin="round"/>
</svg>
