<svg width="24" height="24" viewBox="0 0 24 24" fill="none" xmlns="http://www.w3.org/2000/svg">
<path d="M16 6C15.023 4.774 13.593 4 12 4C10.407 4 8.977 4.774 8 6M14 8C13.511 7.387 12.797 7 12 7C11.203 7 10.489 7.387 10 8M17 21C18.87 21 19.804 21 20.5 20.598C20.956 20.3347 21.3347 19.956 21.598 19.5C22 18.804 22 17.87 22 16C22 14.13 22 13.196 21.598 12.5C21.3347 12.044 20.956 11.6653 20.5 11.402C19.804 11 18.87 11 17 11H7C5.13 11 4.196 11 3.5 11.402C3.04398 11.6653 2.66529 12.044 2.402 12.5C2 13.196 2 14.13 2 16C2 17.87 2 18.804 2.402 19.5C2.66529 19.956 3.04398 20.3347 3.5 20.598C4.196 21 5.13 21 7 21H17Z" stroke="#FF9800" stroke-width="1.5" stroke-linecap="round" stroke-linejoin="round"/>
<path d="M5 14V18H6.5M19 18H17V16M17 16V14H19M17 16H18.5M9 14V18M11.5 14L13 18L14.5 14" stroke="#FF9800" stroke-width="1.5" stroke-linecap="round" stroke-linejoin="round"/>
</svg>
