<svg width="16" height="16" viewBox="0 0 16 16" fill="none" xmlns="http://www.w3.org/2000/svg">
<g clip-path="url(#clip0_101_1408)">
<path d="M13.1429 5.71512C13.1429 8.56084 8.00004 15.4294 8.00004 15.4294C8.00004 15.4294 2.85718 8.56084 2.85718 5.71512C2.85718 4.35115 3.39901 3.04305 4.36349 2.07857C5.32796 1.1141 6.63606 0.572266 8.00004 0.572266C9.36401 0.572266 10.6721 1.1141 11.6366 2.07857C12.6011 3.04305 13.1429 4.35115 13.1429 5.71512V5.71512Z" stroke="black" stroke-linecap="round" stroke-linejoin="round"/>
<path d="M7.99993 7.42857C8.9467 7.42857 9.71422 6.66106 9.71422 5.71429C9.71422 4.76751 8.9467 4 7.99993 4C7.05316 4 6.28564 4.76751 6.28564 5.71429C6.28564 6.66106 7.05316 7.42857 7.99993 7.42857Z" stroke="black" stroke-linecap="round" stroke-linejoin="round"/>
</g>
<defs>
<clipPath id="clip0_101_1408">
<rect width="16" height="16" fill="white"/>
</clipPath>
</defs>
</svg>
