<svg width="18" height="18" viewBox="0 0 18 18" fill="none" xmlns="http://www.w3.org/2000/svg">
<path d="M6.76419 6.74982C6.6876 5.75661 6.91712 4.76377 7.42185 3.90495C7.92658 3.04612 8.6823 2.36254 9.58729 1.9462C10.4923 1.52986 11.5031 1.40075 12.4837 1.57626C13.4642 1.75177 14.3675 2.22347 15.0719 2.92786C15.7763 3.63225 16.248 4.53553 16.4235 5.5161C16.599 6.49668 16.4699 7.50749 16.0536 8.41248C15.6372 9.31746 14.9536 10.0732 14.0948 10.5779C13.236 11.0826 12.2432 11.3122 11.2499 11.2356" stroke="white" stroke-width="1.125" stroke-linecap="round" stroke-linejoin="round"/>
<path d="M16.5 12.75C16.5 13.3467 16.2629 13.919 15.841 14.341C15.419 14.7629 14.8467 15 14.25 15H12.75M14.25 16.5L12.75 15L14.25 13.5M1.5 5.25C1.5 4.65326 1.73705 4.08097 2.15901 3.65901C2.58097 3.23705 3.15326 3 3.75 3H5.25M3.75 1.5L5.25 3L3.75 4.5M6.375 16.5C5.08207 16.5 3.84209 15.9864 2.92785 15.0721C2.01361 14.1579 1.5 12.9179 1.5 11.625C1.5 10.3321 2.01361 9.09209 2.92785 8.17785C3.84209 7.26361 5.08207 6.75 6.375 6.75C7.66793 6.75 8.90791 7.26361 9.82215 8.17785C10.7364 9.09209 11.25 10.3321 11.25 11.625C11.25 12.9179 10.7364 14.1579 9.82215 15.0721C8.90791 15.9864 7.66793 16.5 6.375 16.5Z" stroke="white" stroke-width="1.125" stroke-linecap="round" stroke-linejoin="round"/>
</svg>
