<svg width="27" height="5" viewBox="0 0 27 5" fill="none" xmlns="http://www.w3.org/2000/svg">
<path d="M2.25 0C1.0125 0 0 1.0125 0 2.25C0 3.4875 1.0125 4.5 2.25 4.5C3.4875 4.5 4.5 3.4875 4.5 2.25C4.5 1.0125 3.4875 0 2.25 0ZM24.75 0C23.5125 0 22.5 1.0125 22.5 2.25C22.5 3.4875 23.5125 4.5 24.75 4.5C25.9875 4.5 27 3.4875 27 2.25C27 1.0125 25.9875 0 24.75 0ZM13.5 0C12.2625 0 11.25 1.0125 11.25 2.25C11.25 3.4875 12.2625 4.5 13.5 4.5C14.7375 4.5 15.75 3.4875 15.75 2.25C15.75 1.0125 14.7375 0 13.5 0Z" fill="white"/>
</svg>
