<svg width="33" height="33" viewBox="0 0 33 33" fill="none" xmlns="http://www.w3.org/2000/svg">
<path opacity="0.5" fill-rule="evenodd" clip-rule="evenodd" d="M27.0696 19.3774L27.3226 17.0344C27.456 15.7832 27.5454 14.9582 27.4752 14.437C27.1832 14.4334 26.8953 14.3678 26.6305 14.2445C26.3657 14.1213 26.1302 13.9432 25.9394 13.722C25.4897 13.9984 24.904 14.5828 24.0226 15.4614C23.342 16.1393 23.0024 16.4775 22.6229 16.5298C22.4126 16.559 22.1983 16.529 22.0041 16.4432C21.6549 16.2892 21.4211 15.8712 20.955 15.0338L18.4937 10.6214C18.2064 10.1058 17.9657 9.67267 17.7485 9.32617C17.3731 9.5173 16.9496 9.62455 16.5 9.62455C16.0504 9.62455 15.6269 9.5173 15.2515 9.32617C15.0342 9.67405 14.7936 10.1058 14.5049 10.6214L12.045 15.0338C11.5775 15.8712 11.3437 16.2892 10.9945 16.4432C10.8003 16.529 10.586 16.559 10.3757 16.5298C9.99761 16.4775 9.65799 16.1393 8.97736 15.4614C8.09599 14.5828 7.51024 13.9984 7.06199 13.722C6.87105 13.9433 6.63525 14.1215 6.37023 14.2448C6.1052 14.3681 5.81701 14.4336 5.52474 14.437C5.45461 14.9568 5.54399 15.7832 5.67736 17.0344L5.93036 19.3774L6.05274 20.5462C6.39924 23.8943 6.68524 26.6649 7.85399 27.7099C9.15474 28.8745 11.1045 28.8745 15.004 28.8745H17.996C21.8955 28.8745 23.8452 28.8745 25.146 27.7099C26.3147 26.6649 26.6007 23.8943 26.9472 20.5462C26.9867 20.1639 27.0265 19.7743 27.0696 19.3774Z" fill="white"/>
<path d="M27.5 14.4375C28.0459 14.4342 28.5683 14.2146 28.9526 13.8269C29.3369 13.4391 29.5518 12.9148 29.5501 12.3688C29.5485 11.8229 29.3305 11.2999 28.9438 10.9144C28.5572 10.529 28.0336 10.3125 27.4876 10.3125C26.9417 10.3125 26.418 10.529 26.0314 10.9144C25.6448 11.2999 25.4268 11.8229 25.4251 12.3688C25.4235 12.9148 25.6384 13.4391 26.0227 13.8269C26.407 14.2146 26.9293 14.4342 27.4753 14.4375H27.5ZM16.5 4.125C15.7707 4.125 15.0712 4.41473 14.5555 4.93046C14.0397 5.44618 13.75 6.14565 13.75 6.875C13.75 7.60435 14.0397 8.30382 14.5555 8.81954C15.0712 9.33527 15.7707 9.625 16.5 9.625C17.2293 9.625 17.9288 9.33527 18.4445 8.81954C18.9603 8.30382 19.25 7.60435 19.25 6.875C19.25 6.14565 18.9603 5.44618 18.4445 4.93046C17.9288 4.41473 17.2293 4.125 16.5 4.125ZM3.4375 12.375C3.4375 12.922 3.6548 13.4466 4.04159 13.8334C4.42839 14.2202 4.95299 14.4375 5.5 14.4375H5.52475C6.0678 14.4321 6.58669 14.2122 6.96838 13.8259C7.35007 13.4396 7.56362 12.9181 7.5625 12.375C7.5625 11.828 7.3452 11.3034 6.95841 10.9166C6.57161 10.5298 6.04701 10.3125 5.5 10.3125C4.95299 10.3125 4.42839 10.5298 4.04159 10.9166C3.6548 11.3034 3.4375 11.828 3.4375 12.375ZM6.66738 25.0938C6.52563 24.4113 6.41278 23.7232 6.32913 23.0312H26.6709C26.5746 23.7806 26.4674 24.475 26.3326 25.0938H6.66738Z" fill="white"/>
</svg>
