<svg width="25" height="25" viewBox="0 0 25 25" fill="none" xmlns="http://www.w3.org/2000/svg">
<path d="M6.93046 6.25L6.76718 6.27734C6.25528 6.33975 5.76846 6.53442 5.35468 6.84219C5.26327 6.89688 5.18124 6.97031 5.09062 7.04375C5.08102 7.02685 5.07466 7.0083 5.07187 6.98906C5.05312 6.8875 5.04452 6.77969 5.02656 6.67891C4.99921 6.51484 4.90781 6.43125 4.74374 6.43125H4.31484C4.05077 6.43125 4.00546 6.4875 4.00546 6.74297V14.6531C4.01484 14.7719 4.08671 14.8344 4.18671 14.8438H4.98046C5.08984 14.8438 5.15312 14.7719 5.16171 14.6531C5.17109 14.6164 5.17109 14.5797 5.17109 14.5437V11.7953C5.20781 11.832 5.23593 11.85 5.2539 11.868C5.91952 12.4242 6.68515 12.6062 7.52421 12.4422C8.28984 12.2875 8.81796 11.8227 9.15546 11.1391C9.41952 10.6195 9.52734 10.0914 9.53671 9.51719C9.55468 8.88828 9.49999 8.28281 9.23593 7.69062C8.92577 6.96172 8.39765 6.47812 7.60468 6.31406C7.48593 6.28672 7.35937 6.27734 7.24062 6.25938C7.13124 6.25 7.03046 6.25 6.92968 6.25H6.93046ZM13.0023 6.25C12.9667 6.26029 12.93 6.26633 12.893 6.26797C12.5304 6.28373 12.1703 6.33555 11.818 6.42266C11.5898 6.47734 11.3711 6.55859 11.1523 6.63125C11.0156 6.67656 10.9516 6.77734 10.9516 6.92266C10.9609 7.04141 10.9516 7.16875 10.9516 7.2875C10.9609 7.46953 11.0344 7.51641 11.2078 7.47109C11.4992 7.39766 11.7906 7.31641 12.082 7.26172C12.5375 7.17969 13.0023 7.14297 13.4672 7.20703C13.7133 7.25234 13.9414 7.31641 14.0961 7.52578C14.2328 7.69922 14.2883 7.91719 14.2976 8.13594C14.307 8.44609 14.307 8.69141 14.307 9.00078C14.307 9.01875 14.307 9.03672 14.2976 9.04531H14.2516C13.8602 8.94882 13.4609 8.88815 13.0586 8.86406C12.6391 8.84609 12.2203 8.86406 11.8195 9.01016C11.3367 9.17422 10.9437 9.46562 10.7164 9.93984C10.543 10.3047 10.5148 10.6883 10.5695 11.0797C10.6516 11.6086 10.9078 12.0094 11.3726 12.2633C11.8195 12.5094 12.293 12.5367 12.7851 12.4633C13.3404 12.3809 13.8613 12.144 14.2883 11.7797C14.3062 11.7617 14.325 11.7531 14.343 11.7352C14.3703 11.8812 14.3898 12.0187 14.4164 12.1461C14.4344 12.2648 14.5086 12.3367 14.618 12.3461H15.2281C15.2752 12.3447 15.3199 12.3248 15.3525 12.2907C15.3851 12.2567 15.403 12.2112 15.4023 12.1641C15.4117 12.1367 15.4117 12.0992 15.4117 12.0633V8.17422C15.4105 8.0151 15.3972 7.85631 15.3719 7.69922C15.2992 7.21641 15.0984 6.81484 14.6609 6.55937C14.4148 6.41328 14.1422 6.34063 13.8508 6.29609C13.7141 6.27734 13.5851 6.26797 13.4492 6.25H13.0023ZM16.1617 6.25156C16.0703 6.25156 16.025 6.33281 16.043 6.42344C16.0609 6.49766 16.0891 6.57969 16.1164 6.65312C16.8453 8.45781 17.5828 10.2609 18.3211 12.075C18.3851 12.2289 18.3937 12.3578 18.3211 12.5125C18.2039 12.7852 18.1023 13.0672 17.975 13.3406C17.8656 13.5867 17.6836 13.7703 17.4101 13.843C17.2281 13.8891 17.0273 13.907 16.8367 13.8797C16.7453 13.8703 16.6531 13.8523 16.5617 13.843C16.4336 13.8336 16.3711 13.8875 16.3617 14.0242V14.3906C16.3711 14.6008 16.4351 14.6914 16.6445 14.7281C16.8453 14.7641 17.0539 14.7906 17.2726 14.7992C17.9101 14.8078 18.4133 14.5547 18.7414 13.9984C18.8752 13.7804 18.991 13.5518 19.0875 13.3148C19.9703 11.082 20.8453 8.85859 21.7203 6.61641C21.7475 6.55197 21.7659 6.48418 21.775 6.41484C21.7922 6.30547 21.7375 6.25078 21.6383 6.25312H20.9016C20.8391 6.25016 20.7773 6.267 20.725 6.30123C20.6726 6.33546 20.6325 6.38534 20.6101 6.44375C20.5922 6.49844 20.5734 6.54297 20.5555 6.59766L19.2523 10.3258C19.1609 10.5898 19.0594 10.8625 18.968 11.1539C18.9492 11.1078 18.9406 11.0898 18.9312 11.0625C18.4484 9.73203 17.9758 8.40313 17.493 7.07266C17.4203 6.85391 17.3383 6.64297 17.2562 6.43281C17.2404 6.38228 17.2086 6.33824 17.1657 6.30726C17.1227 6.27628 17.0709 6.26003 17.018 6.26094C16.7351 6.25156 16.4531 6.25156 16.1617 6.25156ZM6.92187 7.19687C7.47812 7.24297 7.93359 7.51719 8.17031 8.16328C8.3164 8.56406 8.35312 8.95078 8.35312 9.37031C8.35312 9.7625 8.32656 10.1094 8.20859 10.4828C7.95312 11.2758 7.36952 11.5852 6.62187 11.5492C6.09296 11.5219 5.64609 11.3203 5.22656 11.0289C5.18124 11.0016 5.1539 10.9578 5.16249 10.9117V7.81719C5.15468 7.7625 5.18124 7.71797 5.22656 7.69062C5.73671 7.33516 6.30156 7.15156 6.92187 7.19766V7.19687ZM12.8351 9.65859C12.9914 9.64557 13.1476 9.64818 13.3039 9.66641C13.6133 9.69375 13.9242 9.74766 14.2336 9.79297C14.2984 9.80234 14.3148 9.82969 14.3148 9.88438C14.3055 10.0672 14.3148 10.2406 14.3148 10.4234C14.3148 10.6062 14.3062 10.7703 14.3062 10.9531C14.3156 10.9984 14.2875 11.0336 14.2516 11.0609C13.8312 11.3617 13.3766 11.5633 12.8562 11.618C12.6469 11.6359 12.4367 11.6359 12.2367 11.5539C12.1251 11.513 12.0248 11.446 11.9441 11.3587C11.8634 11.2714 11.8046 11.1661 11.7726 11.0516C11.702 10.8173 11.699 10.5679 11.7641 10.332C11.8641 10.0219 12.082 9.85 12.3734 9.74922C12.5237 9.70365 12.6781 9.67329 12.8344 9.65859H12.8351ZM22.6891 15.6266C21.9601 15.6367 21.0992 15.8 20.4461 16.2586C20.2445 16.3984 20.2797 16.5922 20.5039 16.5664C21.2383 16.4781 22.8726 16.2797 23.1648 16.6531C23.457 17.0266 22.8414 18.5672 22.5687 19.2563C22.4844 19.4617 22.6625 19.5469 22.8508 19.3906C24.0726 18.3672 24.3898 16.2219 24.1398 15.9141C24.0148 15.7594 23.418 15.6164 22.6891 15.6266ZM0.951556 16.4078C0.781243 16.4313 0.707805 16.6469 0.88593 16.818C3.94531 19.6883 7.98906 21.0938 12.4789 21.0938C15.6812 21.0938 19.3984 20.0492 21.9648 18.0805C22.3891 17.7523 22.0273 17.2625 21.593 17.4555C18.7156 18.7258 15.5898 19.3375 12.7453 19.3375C8.52968 19.3375 4.44843 18.457 1.14765 16.4578C1.08942 16.4197 1.02014 16.4021 0.950774 16.4078H0.951556Z" fill="white"/>
</svg>
