<svg width="18" height="18" viewBox="0 0 18 18" fill="none" xmlns="http://www.w3.org/2000/svg">
<path d="M8.26875 16.4621C7.31875 16.3621 6.4345 16.1029 5.616 15.6844C4.7975 15.2659 4.08175 14.7221 3.46875 14.0531C2.85575 13.3841 2.3745 12.6184 2.025 11.7559C1.6755 10.8934 1.5005 9.97461 1.5 8.99961C1.5 7.03711 2.15325 5.34961 3.45975 3.93711C4.76625 2.52461 6.36925 1.72461 8.26875 1.53711V3.05586C6.78125 3.24336 5.53125 3.89661 4.51875 5.01561C3.50625 6.13461 3 7.46261 3 8.99961C3 10.5366 3.50625 11.8649 4.51875 12.9844C5.53125 14.1039 6.78125 14.7569 8.26875 14.9434V16.4621ZM8.26875 12.7496V8.11836L6.31875 10.0684L5.26875 8.99961L9.01875 5.24961L12.7687 8.99961L11.7 10.0496L9.76875 8.11836V12.7496H8.26875ZM9.76875 16.4621V14.9434C10.3187 14.8809 10.8407 14.7434 11.3348 14.5309C11.8287 14.3184 12.2817 14.0496 12.6937 13.7246L13.7625 14.8121C13.2 15.2621 12.5813 15.6309 11.9062 15.9184C11.2312 16.2059 10.5187 16.3871 9.76875 16.4621ZM12.675 4.27461C12.2625 3.94961 11.8125 3.68086 11.325 3.46836C10.8375 3.25586 10.3187 3.11836 9.76875 3.05586V1.53711C10.5187 1.61211 11.2312 1.79336 11.9062 2.08086C12.5813 2.36836 13.2 2.73711 13.7625 3.18711L12.675 4.27461ZM14.8125 13.7434L13.7438 12.6746C14.0688 12.2621 14.3375 11.8091 14.55 11.3156C14.7625 10.8221 14.9 10.3001 14.9625 9.74961H16.4813C16.4062 10.4996 16.222 11.2121 15.9285 11.8871C15.635 12.5621 15.263 13.1809 14.8125 13.7434ZM14.9625 8.24961C14.9 7.69961 14.7625 7.17786 14.55 6.68436C14.3375 6.19086 14.0688 5.73761 13.7438 5.32461L14.8125 4.25586C15.2625 4.81836 15.6345 5.43711 15.9285 6.11211C16.2225 6.78711 16.4068 7.49961 16.4813 8.24961H14.9625Z" fill="white"/>
</svg>
