<svg width="20" height="20" viewBox="0 0 20 20" fill="none" xmlns="http://www.w3.org/2000/svg">
<path d="M1.66667 3.75H7.2975C7.62592 3.74996 7.95113 3.81463 8.25454 3.94032C8.55796 4.066 8.83364 4.25024 9.06583 4.4825L11.6667 7.08333M4.16667 11.25H1.66667M7.08333 6.25L8.75 7.91667C8.85943 8.0261 8.94624 8.15602 9.00547 8.299C9.06469 8.44199 9.09518 8.59524 9.09518 8.75C9.09518 8.90476 9.06469 9.05801 9.00547 9.201C8.94624 9.34398 8.85943 9.4739 8.75 9.58333C8.64056 9.69277 8.51065 9.77958 8.36766 9.8388C8.22468 9.89803 8.07143 9.92851 7.91667 9.92851C7.7619 9.92851 7.60865 9.89803 7.46567 9.8388C7.32269 9.77958 7.19277 9.69277 7.08333 9.58333L5.83333 8.33333C5.11667 9.05 3.98083 9.13083 3.16917 8.5225L2.91667 8.33333" stroke="white" stroke-width="1.25" stroke-linecap="round" stroke-linejoin="round"/>
<path d="M4.16667 9.16536V12.9154C4.16667 14.487 4.16667 15.272 4.655 15.7604C5.14333 16.2487 5.92833 16.2487 7.5 16.2487H15C16.5717 16.2487 17.3567 16.2487 17.845 15.7604C18.3333 15.272 18.3333 14.487 18.3333 12.9154V10.4154C18.3333 8.8437 18.3333 8.0587 17.845 7.57036C17.3567 7.08203 16.5717 7.08203 15 7.08203H7.91667" stroke="white" stroke-width="1.25" stroke-linecap="round" stroke-linejoin="round"/>
<path d="M12.7083 11.6654C12.7083 12.0521 12.5547 12.4231 12.2812 12.6966C12.0077 12.9701 11.6368 13.1237 11.25 13.1237C10.8632 13.1237 10.4923 12.9701 10.2188 12.6966C9.94531 12.4231 9.79167 12.0521 9.79167 11.6654C9.79167 11.2786 9.94531 10.9077 10.2188 10.6342C10.4923 10.3607 10.8632 10.207 11.25 10.207C11.6368 10.207 12.0077 10.3607 12.2812 10.6342C12.5547 10.9077 12.7083 11.2786 12.7083 11.6654Z" stroke="white" stroke-width="1.25" stroke-linecap="round" stroke-linejoin="round"/>
</svg>
