<svg width="16" height="16" viewBox="0 0 16 16" fill="none" xmlns="http://www.w3.org/2000/svg">
<g clip-path="url(#clip0_101_1404)">
<path d="M10.0113 14.8574C10.7151 15.3114 11.5538 15.5093 12.3863 15.4177C13.2189 15.3261 13.9945 14.9507 14.5827 14.3545L15.097 13.8516C15.3225 13.621 15.4487 13.3113 15.4487 12.9888C15.4487 12.6663 15.3225 12.3565 15.097 12.1259L12.9142 9.96593C12.6855 9.74118 12.3777 9.61525 12.057 9.61525C11.7364 9.61525 11.4286 9.74118 11.1999 9.96593V9.96593C10.9693 10.1914 10.6596 10.3176 10.337 10.3176C10.0145 10.3176 9.7048 10.1914 9.47418 9.96593L6.04561 6.53736C5.93123 6.42465 5.84041 6.29032 5.77841 6.14219C5.71642 5.99406 5.68449 5.83508 5.68449 5.6745C5.68449 5.51392 5.71642 5.35494 5.77841 5.20681C5.84041 5.05868 5.93123 4.92436 6.04561 4.81164V4.81164C6.27036 4.58295 6.39629 4.27514 6.39629 3.9545C6.39629 3.63386 6.27036 3.32605 6.04561 3.09736L3.87418 0.925929C3.64356 0.700461 3.33385 0.574219 3.01132 0.574219C2.6888 0.574219 2.37908 0.700461 2.14846 0.925929L1.64561 1.44022C1.04943 2.02849 0.67399 2.8041 0.582411 3.63663C0.490833 4.46917 0.688703 5.30784 1.14275 6.01164C3.50852 9.49819 6.51868 12.5006 10.0113 14.8574V14.8574Z" stroke="black" stroke-linecap="round" stroke-linejoin="round"/>
</g>
<defs>
<clipPath id="clip0_101_1404">
<rect width="16" height="16" fill="white"/>
</clipPath>
</defs>
</svg>
