<svg width="16" height="16" viewBox="0 0 16 16" fill="none" xmlns="http://www.w3.org/2000/svg">
<path d="M1.64289 15.3555L14.2143 15.3555C14.8455 15.3555 15.3572 14.8438 15.3572 14.2126L15.3572 1.64118C15.3572 1.01 14.8455 0.498327 14.2143 0.498327L1.64289 0.498327C1.01171 0.498327 0.500036 1.01 0.500036 1.64118L0.500036 14.2126C0.500036 14.8438 1.01171 15.3555 1.64289 15.3555Z" stroke="#008BB2" stroke-linecap="round" stroke-linejoin="round"/>
<path d="M0.5 12.4961H15.3571" stroke="#008BB2" stroke-linecap="round" stroke-linejoin="round"/>
<path d="M4.31714 12.4986L10.2714 6.92142C10.3741 6.8359 10.5035 6.78906 10.6371 6.78906C10.7708 6.78906 10.9002 6.8359 11.0029 6.92142L15.3571 10.0414" stroke="#008BB2" stroke-linecap="round" stroke-linejoin="round"/>
<path d="M5.07146 6.78404C6.01824 6.78404 6.78575 6.01653 6.78575 5.06975C6.78575 4.12298 6.01824 3.35547 5.07146 3.35547C4.12469 3.35547 3.35718 4.12298 3.35718 5.06975C3.35718 6.01653 4.12469 6.78404 5.07146 6.78404Z" stroke="#008BB2" stroke-linecap="round" stroke-linejoin="round"/>
</svg>
