<svg width="19" height="19" viewBox="0 0 19 19" fill="none" xmlns="http://www.w3.org/2000/svg">
<path d="M7.125 11.2812C7.65163 11.2811 8.16337 11.456 8.57975 11.7785C8.99613 12.1009 9.29353 12.5526 9.42519 13.0625H16.0312C16.1796 13.0622 16.3227 13.1175 16.4324 13.2175C16.542 13.3174 16.6103 13.4548 16.6237 13.6026C16.6371 13.7504 16.5947 13.8978 16.5048 14.0159C16.4149 14.1339 16.2841 14.2141 16.1381 14.2405L16.0312 14.25L9.42519 14.2512C9.29397 14.7615 8.99676 15.2137 8.58034 15.5366C8.16392 15.8595 7.65194 16.0348 7.125 16.0348C6.59806 16.0348 6.08608 15.8595 5.66966 15.5366C5.25324 15.2137 4.95603 14.7615 4.82481 14.2512L2.96875 14.25C2.82038 14.2503 2.67728 14.195 2.56763 14.095C2.45799 13.9951 2.38974 13.8577 2.37634 13.7099C2.36293 13.5621 2.40533 13.4147 2.4952 13.2966C2.58506 13.1786 2.71587 13.0984 2.86187 13.072L2.96875 13.0625H4.82481C4.95647 12.5526 5.25387 12.1009 5.67025 11.7785C6.08663 11.456 6.59837 11.2811 7.125 11.2812ZM7.125 12.4688C6.81006 12.4688 6.50801 12.5939 6.28531 12.8166C6.06261 13.0393 5.9375 13.3413 5.9375 13.6562C5.9375 13.9712 6.06261 14.2732 6.28531 14.4959C6.50801 14.7186 6.81006 14.8438 7.125 14.8438C7.43994 14.8438 7.74199 14.7186 7.96469 14.4959C8.18739 14.2732 8.3125 13.9712 8.3125 13.6562C8.3125 13.3413 8.18739 13.0393 7.96469 12.8166C7.74199 12.5939 7.43994 12.4688 7.125 12.4688ZM11.875 2.96875C12.4016 2.96862 12.9134 3.14352 13.3297 3.46596C13.7461 3.7884 14.0435 4.24009 14.1752 4.75H16.0312C16.1796 4.74973 16.3227 4.80502 16.4324 4.90498C16.542 5.00494 16.6103 5.14233 16.6237 5.2901C16.6371 5.43787 16.5947 5.5853 16.5048 5.70336C16.4149 5.82143 16.2841 5.90157 16.1381 5.928L16.0312 5.9375L14.1752 5.93869C14.044 6.44903 13.7468 6.90124 13.3303 7.22414C12.9139 7.54704 12.4019 7.72228 11.875 7.72228C11.3481 7.72228 10.8361 7.54704 10.4197 7.22414C10.0032 6.90124 9.70603 6.44903 9.57481 5.93869L2.96875 5.9375C2.82038 5.93777 2.67728 5.88248 2.56763 5.78252C2.45799 5.68256 2.38974 5.54517 2.37634 5.3974C2.36293 5.24963 2.40533 5.1022 2.4952 4.98414C2.58506 4.86607 2.71587 4.78593 2.86187 4.7595L2.96875 4.75H9.57481C9.70647 4.24009 10.0039 3.7884 10.4203 3.46596C10.8366 3.14352 11.3484 2.96862 11.875 2.96875ZM11.875 4.15625C11.5601 4.15625 11.258 4.28136 11.0353 4.50406C10.8126 4.72676 10.6875 5.02881 10.6875 5.34375C10.6875 5.65869 10.8126 5.96074 11.0353 6.18344C11.258 6.40614 11.5601 6.53125 11.875 6.53125C12.1899 6.53125 12.492 6.40614 12.7147 6.18344C12.9374 5.96074 13.0625 5.65869 13.0625 5.34375C13.0625 5.02881 12.9374 4.72676 12.7147 4.50406C12.492 4.28136 12.1899 4.15625 11.875 4.15625Z" fill="white"/>
</svg>
