<svg width="33" height="33" viewBox="0 0 33 33" fill="none" xmlns="http://www.w3.org/2000/svg">
<g clip-path="url(#clip0_92_1551)">
<path fill-rule="evenodd" clip-rule="evenodd" d="M20.1891 15.4407C19.9907 15.1266 19.7105 14.8724 19.3787 14.7052C19.0469 14.5381 18.6759 14.4644 18.3054 14.4919C17.8704 14.5159 17.4427 14.6135 17.0404 14.7807C16.9579 14.5744 16.8891 14.3544 16.8204 14.1344L16.5729 13.5432C16.9494 13.4437 17.3388 13.402 17.7279 13.4194C17.8646 13.4391 18.0035 13.4039 18.1143 13.3214C18.2251 13.239 18.2987 13.116 18.3191 12.9794C18.3309 12.9099 18.3289 12.8387 18.3132 12.77C18.2975 12.7012 18.2684 12.6362 18.2275 12.5788C18.1866 12.5213 18.1348 12.4724 18.075 12.435C18.0153 12.3976 17.9487 12.3723 17.8791 12.3607C17.301 12.2652 16.7111 12.2652 16.1329 12.3607C15.9129 11.7969 15.6654 11.2194 15.4591 10.6557C15.4389 10.5735 15.3991 10.4974 15.343 10.434C15.2869 10.3706 15.2162 10.3218 15.1371 10.2918C15.058 10.2618 14.9727 10.2514 14.8887 10.2616C14.8047 10.2718 14.7244 10.3023 14.6548 10.3504C14.5711 10.4094 14.5072 10.4923 14.4713 10.5882C14.4355 10.6841 14.4295 10.7886 14.454 10.888C14.5228 11.5205 14.6465 12.1668 14.729 12.7993C14.4407 12.8798 14.16 12.9856 13.8903 13.1155C13.6256 13.2662 13.3937 13.4684 13.2084 13.7101C13.0231 13.9518 12.888 14.2282 12.8111 14.5229C12.7342 14.8176 12.7171 15.1247 12.7607 15.4261C12.8044 15.7276 12.9079 16.0172 13.0653 16.278C13.2215 16.6089 13.4658 16.8904 13.7714 17.0917C14.077 17.293 14.4321 17.4064 14.7978 17.4193C15.1496 17.4105 15.4977 17.3455 15.829 17.2268L15.994 17.653C16.1865 18.1068 16.4203 18.533 16.6265 19.028C15.9758 19.2821 15.2579 19.3063 14.5915 19.0968C14.5221 19.0646 14.4469 19.0466 14.3705 19.0437C14.294 19.0409 14.2178 19.0533 14.1461 19.0801C14.0745 19.107 14.0089 19.1478 13.9532 19.2002C13.8974 19.2527 13.8527 19.3157 13.8215 19.3855C13.7872 19.4556 13.7674 19.532 13.7634 19.61C13.7594 19.6879 13.7713 19.7659 13.7983 19.8392C13.8252 19.9124 13.8668 19.9794 13.9204 20.0362C13.9741 20.0929 14.0386 20.1382 14.1103 20.1693C15.1071 20.5818 16.214 20.6368 17.2453 20.3205L17.6165 21.0768C17.6453 21.1491 17.688 21.215 17.7423 21.2708C17.7967 21.3265 17.8614 21.371 17.933 21.4017C18.0045 21.4323 18.0814 21.4486 18.1592 21.4494C18.2371 21.4503 18.3143 21.4358 18.3865 21.4068C18.4623 21.3786 18.5313 21.3348 18.5891 21.2782C18.6469 21.2216 18.6922 21.1536 18.722 21.0784C18.7518 21.0032 18.7655 20.9226 18.7622 20.8418C18.7589 20.761 18.7386 20.6818 18.7028 20.6093L18.4965 19.8255C18.7963 19.6972 19.0804 19.5414 19.349 19.358C19.6703 19.1638 19.9485 18.9059 20.1663 18.6001C20.3842 18.2943 20.5371 17.9472 20.6157 17.58C20.6943 17.2129 20.6969 16.8335 20.6233 16.4654C20.5497 16.0972 20.4014 15.748 20.1878 15.4393M14.6053 15.4393C14.2753 14.958 14.5228 14.5455 14.9353 14.243C14.9353 14.3805 14.9353 14.518 15.004 14.6555C15.0728 14.793 15.1415 15.1918 15.224 15.4668L14.9765 15.5493C14.839 15.5768 14.7015 15.5905 14.6053 15.453V15.4393ZM18.0703 18.313C17.974 17.9005 17.864 17.5018 17.754 17.103L17.6303 16.663C17.8301 16.5759 18.0363 16.5072 18.249 16.4568C18.3865 16.4568 18.524 16.4568 18.6065 16.5393C19.1153 17.213 18.7028 17.8593 18.0703 18.3268V18.313Z" fill="white"/>
<path fill-rule="evenodd" clip-rule="evenodd" d="M31.2579 13.0485C30.9649 12.2387 30.6299 11.4447 30.2541 10.6698C29.8367 9.88948 29.3777 9.13214 28.8791 8.40102C27.7414 6.71502 26.4528 5.13598 25.0291 3.68339C24.9828 3.63297 24.9264 3.59272 24.8637 3.56519C24.801 3.53765 24.7332 3.52344 24.6648 3.52344C24.5963 3.52344 24.5285 3.53765 24.4658 3.56519C24.4031 3.59272 24.3467 3.63297 24.3004 3.68339C24.2159 3.75758 24.162 3.86048 24.1491 3.97214C24.0518 3.8996 23.9336 3.86042 23.8123 3.86042C23.6909 3.86042 23.5727 3.8996 23.4754 3.97214C22.1172 4.88199 20.7078 5.71294 19.2541 6.46089C18.3301 6.93806 17.3445 7.2851 16.3254 7.49214C14.167 7.74122 11.9923 7.81938 9.82163 7.72589C8.82415 7.77871 7.83643 7.94948 6.87913 8.23464C5.81965 8.59502 4.81894 9.10928 3.90913 9.76089C2.60801 10.6811 1.42893 11.7627 0.400127 12.9798C0.353427 13.0394 0.319551 13.1081 0.300622 13.1814C0.281693 13.2548 0.27812 13.3312 0.290127 13.406C0.175724 13.4601 0.0855708 13.5548 0.0372656 13.6718C-0.0110397 13.7887 -0.0140304 13.9195 0.0288774 14.0385C0.551377 15.7848 0.991377 17.5998 1.58263 19.3873C2.07004 20.9195 2.68165 22.4095 3.41138 23.8423C4.25486 25.543 5.22947 27.1755 6.32638 28.7249C6.39271 28.8189 6.48624 28.8904 6.59439 28.9297C6.70254 28.9691 6.82013 28.9744 6.93138 28.9449C6.92211 29.0672 6.95618 29.1889 7.02763 29.2886C7.1159 29.3924 7.24035 29.4586 7.37569 29.4739C7.51104 29.4893 7.64714 29.4525 7.75638 29.3711C9.06503 28.416 10.4439 27.5611 11.8814 26.8136C13.239 26.0793 14.7138 25.5861 16.2401 25.3561C17.7372 25.1137 19.2482 24.9667 20.7639 24.9161C22.3613 24.8472 23.9493 24.6355 25.509 24.2836C27.6632 23.7934 29.6446 22.7291 31.2428 21.2036C31.3599 21.1025 31.4328 20.9594 31.4456 20.8052C31.4585 20.6509 31.4103 20.4978 31.3115 20.3786C31.1972 20.2733 31.0475 20.2148 30.8921 20.2148C30.7367 20.2148 30.587 20.2733 30.4728 20.3786C28.9388 21.603 27.1159 22.4127 25.179 22.7299C23.6784 22.9182 22.1676 23.0146 20.6553 23.0186C19.0589 23.0503 17.468 23.2111 15.8978 23.4999C14.5329 23.8153 13.2218 24.3295 12.0065 25.0261C10.363 25.9986 8.82004 27.1316 7.40025 28.4086C7.41522 28.3268 7.41522 28.243 7.40025 28.1611C6.5186 26.4719 5.73806 24.7317 5.06275 22.9499C4.59525 21.7811 4.15525 20.5986 3.68775 19.4436C2.86275 17.4911 1.92638 15.5936 1.07388 13.7374H1.19763C2.0886 12.853 3.07027 12.0649 4.12638 11.3861C5.11849 10.74 6.21708 10.2745 7.37138 10.0111C8.27542 9.8204 9.19747 9.72819 10.1214 9.73614H14.7414C15.4235 9.67766 16.0995 9.56269 16.7626 9.39239C17.9151 9.08465 19.0206 8.62211 20.0489 8.01739C21.4802 7.08702 22.8578 6.07663 24.1753 4.99102C24.2564 4.91778 24.3138 4.82204 24.3403 4.71602C25.4039 6.26946 26.3728 7.88574 27.2415 9.55602C27.6403 10.2848 28.0253 11.0135 28.4103 11.756C28.7953 12.4985 29.1803 13.2273 29.5515 13.9835C30.4269 15.6842 31.1938 17.4385 31.8478 19.236C31.8684 19.311 31.9037 19.3812 31.9515 19.4425C31.9993 19.5039 32.0588 19.5552 32.1265 19.5935C32.1942 19.6318 32.2688 19.6564 32.346 19.6659C32.4232 19.6753 32.5016 19.6694 32.5765 19.6485C32.7254 19.6039 32.8508 19.5024 32.9254 19.366C33.0001 19.2296 33.018 19.0693 32.9753 18.9198C32.5711 16.9172 31.9975 14.9529 31.2579 13.0485Z" fill="white"/>
<path fill-rule="evenodd" clip-rule="evenodd" d="M23.5304 19.3183C23.4554 19.2977 23.3771 19.2925 23.3001 19.303C23.223 19.3135 23.1489 19.3394 23.0822 19.3792C23.0154 19.419 22.9574 19.4719 22.9115 19.5346C22.8657 19.5974 22.833 19.6688 22.8154 19.7445C22.7947 19.8185 22.7889 19.896 22.7985 19.9723C22.8081 20.0485 22.8329 20.1221 22.8713 20.1887C22.9097 20.2553 22.961 20.3136 23.0223 20.3601C23.0835 20.4066 23.1534 20.4404 23.2279 20.4595C24.0666 20.6713 24.9466 20.6713 25.7854 20.4595C26.9782 20.1684 28.1223 19.7052 29.1816 19.0845C29.368 18.914 29.5037 18.6955 29.5741 18.453C29.6444 18.2104 29.6466 17.9532 29.5804 17.7095C29.2252 15.9297 28.6235 14.2081 27.7929 12.5945C27.1891 11.3351 26.4565 10.1416 25.6066 9.03325C25.1698 8.39873 24.5445 7.9177 23.8191 7.65825C23.443 7.62429 23.0683 7.73767 22.7741 7.9745C21.7842 8.99309 20.5825 9.78168 19.2541 10.2845C19.1808 10.2908 19.1096 10.3126 19.0452 10.3483C18.9808 10.3841 18.9247 10.433 18.8806 10.492C18.8365 10.551 18.8053 10.6186 18.7891 10.6904C18.773 10.7623 18.7722 10.8367 18.7868 10.9089C18.8014 10.9811 18.8312 11.0493 18.874 11.1092C18.9169 11.1691 18.9719 11.2192 19.0355 11.2563C19.0991 11.2935 19.1699 11.3167 19.2431 11.3246C19.3163 11.3325 19.3903 11.3248 19.4604 11.302C20.1796 11.1765 20.8723 10.9301 21.5091 10.5733C22.2784 10.276 23.0117 9.89317 23.6954 9.432L23.7641 9.52825C24.1684 10.0508 24.5231 10.6145 24.8229 11.2058C25.4691 12.3195 26.1979 13.6945 26.7066 14.9458C27.0962 15.7781 27.44 16.6306 27.7379 17.5033C27.7379 17.6407 27.8479 17.792 27.8891 17.902C27.1246 18.4138 26.2974 18.8251 25.4279 19.1258C24.8229 19.3485 24.1684 19.4145 23.5304 19.3183ZM7.084 13.6533C7.82621 13.2194 8.64185 12.9258 9.49025 12.787C10.3958 12.6058 11.3254 12.5779 12.2403 12.7045C12.3765 12.7248 12.5154 12.6918 12.6281 12.6125C12.7407 12.5331 12.8185 12.4134 12.8453 12.2783C12.8569 12.2075 12.8538 12.1351 12.8362 12.0655C12.8187 11.996 12.787 11.9308 12.7431 11.8741C12.6993 11.8173 12.6442 11.7702 12.5813 11.7356C12.5185 11.7011 12.4492 11.6799 12.3778 11.6733C11.3686 11.4415 10.3296 11.3673 9.29775 11.4533C8.20914 11.5202 7.14197 11.7858 6.149 12.237C5.60126 12.5596 5.10527 12.9628 4.67775 13.4333C4.31913 13.8223 4.06384 14.295 3.93525 14.8083C3.86108 15.1619 3.86108 15.5271 3.93525 15.8808C4.01134 16.2658 4.10759 16.6462 4.224 17.022C4.4165 17.6133 4.59525 18.2458 4.81525 18.8508C5.03525 19.4558 5.28275 20.0745 5.55775 20.6795L6.93275 23.4295L7.29025 24.1445C7.3782 24.2996 7.50986 24.4253 7.6688 24.506C7.82774 24.5867 8.00693 24.6188 8.184 24.5983C8.569 24.502 9.284 23.787 10.494 23.2233C10.9308 22.9937 11.3921 22.8138 11.869 22.687C11.953 22.6831 12.0353 22.6613 12.1102 22.6229C12.185 22.5845 12.2508 22.5306 12.3031 22.4646C12.3553 22.3987 12.3928 22.3223 12.4131 22.2407C12.4333 22.159 12.4358 22.074 12.4204 21.9913C12.4056 21.9089 12.3735 21.8305 12.3262 21.7615C12.2789 21.6924 12.2175 21.6342 12.146 21.5907C12.0745 21.5471 11.9946 21.5192 11.9115 21.5089C11.8284 21.4985 11.7441 21.506 11.6641 21.5306C11.0521 21.6235 10.4525 21.7849 9.87663 22.0119C9.35089 22.2419 8.84892 22.5228 8.37788 22.8506L7.22288 20.0044L6.05413 16.5394C5.98538 16.2781 5.88913 16.0306 5.82038 15.7556C5.79409 15.6101 5.79409 15.4611 5.82038 15.3156C5.88913 15.0406 6.03075 14.7876 6.23288 14.5869C6.48496 14.2477 6.76913 13.936 7.08538 13.6519" fill="white"/>
</g>
<defs>
<clipPath id="clip0_92_1551">
<rect width="33" height="33" fill="white"/>
</clipPath>
</defs>
</svg>
