<svg width="28" height="28" viewBox="0 0 28 28" fill="none" xmlns="http://www.w3.org/2000/svg">
<path d="M22.1363 17.5264C22.1363 17.5184 22.1395 17.5107 22.1452 17.505C22.1509 17.4993 22.1586 17.4961 22.1667 17.4961C22.1747 17.4961 22.1824 17.4993 22.1881 17.505C22.1938 17.5107 22.197 17.5184 22.197 17.5264C22.3709 18.3748 22.7901 19.1534 23.4025 19.7656C24.015 20.3779 24.7937 20.7968 25.6422 20.9704C25.6748 20.9774 25.6748 21.0241 25.6422 21.0311C24.7936 21.2048 24.0147 21.6239 23.4022 22.2364C22.7898 22.8488 22.3707 23.6277 22.197 24.4763C22.19 24.5089 22.1433 24.5089 22.1363 24.4763C21.9626 23.6277 21.5435 22.8488 20.9311 22.2364C20.3186 21.6239 19.5397 21.2048 18.6912 21.0311C18.6585 21.0241 18.6585 20.9774 18.6912 20.9704C19.5397 20.7967 20.3186 20.3776 20.9311 19.7652C21.5435 19.1527 21.9626 18.3738 22.1363 17.5253V17.5264Z" stroke="white" stroke-width="1.75"/>
<path d="M17.0882 14.7852C17.9527 14.1786 18.3855 13.8752 18.5582 13.4354C18.7006 13.0467 18.7006 12.6201 18.5582 12.2314C18.3855 11.7916 17.9527 11.4882 17.0882 10.8816C16.5062 10.4694 15.9109 10.0764 15.3032 9.70323C14.7965 9.40104 14.2814 9.11315 13.7585 8.8399C12.8392 8.3569 12.3795 8.1154 11.935 8.1749C11.5425 8.24002 11.1905 8.4545 10.9527 8.7734C10.6797 9.15023 10.6447 9.69156 10.577 10.7742C10.5315 11.4859 10.5 12.2104 10.5 12.8334C10.5 13.4564 10.5315 14.1809 10.577 14.8926C10.6447 15.9752 10.6797 16.5166 10.9527 16.8934C11.1802 17.2061 11.5652 17.4406 11.935 17.4907C12.3795 17.5514 12.8392 17.3099 13.7585 16.8257C14.3022 16.5399 14.8435 16.2424 15.3032 15.9636C15.9109 15.5904 16.5062 15.1974 17.0882 14.7852Z" stroke="white" stroke-width="1.75" stroke-linecap="round"/>
<path d="M25.5173 17.3087C25.6667 16.2435 25.6667 14.8493 25.6667 12.8333C25.6667 9.56667 25.6667 7.93333 25.0308 6.685C24.4716 5.58744 23.5792 4.69509 22.4817 4.13583C21.2333 3.5 19.6 3.5 16.3333 3.5H11.6667C8.39999 3.5 6.76666 3.5 5.51833 4.13583C4.42076 4.69509 3.52841 5.58744 2.96916 6.685C2.33333 7.93333 2.33333 9.56667 2.33333 12.8333C2.33333 16.1 2.33333 17.7333 2.96916 18.9817C3.52841 20.0792 4.42076 20.9716 5.51833 21.5308C6.76666 22.1667 8.39999 22.1667 11.6667 22.1667H15.6637" stroke="white" stroke-width="1.75" stroke-linecap="round" stroke-linejoin="round"/>
</svg>
