<svg width="24" height="24" viewBox="0 0 24 24" fill="none" xmlns="http://www.w3.org/2000/svg">
<path d="M20 19.9999L15.95 15.9499M15.95 15.9499C16.6 15.2998 17.1157 14.5281 17.4675 13.6788C17.8193 12.8295 18.0004 11.9192 18.0004 10.9999C18.0004 10.0806 17.8193 9.17027 17.4675 8.32095C17.1157 7.47163 16.6 6.69991 15.95 6.04987C15.3 5.39983 14.5282 4.88418 13.6789 4.53238C12.8296 4.18058 11.9193 3.99951 11 3.99951C10.0807 3.99951 9.1704 4.18058 8.32108 4.53238C7.47176 4.88418 6.70004 5.39983 6.05 6.04987C4.73718 7.36269 3.99964 9.14326 3.99964 10.9999C3.99964 12.8565 4.73718 14.637 6.05 15.9499C7.36282 17.2627 9.14339 18.0002 11 18.0002C12.8566 18.0002 14.6372 17.2627 15.95 15.9499Z" stroke="black" stroke-width="2" stroke-linecap="round" stroke-linejoin="round"/>
</svg>
