<svg width="101" height="108" viewBox="0 0 101 108" fill="none" xmlns="http://www.w3.org/2000/svg">
<g clip-path="url(#clip0_1359_7358)">
<path d="M82.0625 3.3623H18.9375C10.2218 3.3623 3.15625 10.889 3.15625 20.1737V87.4192C3.15625 96.7038 10.2218 104.231 18.9375 104.231H82.0625C90.7782 104.231 97.8438 96.7038 97.8438 87.4192V20.1737C97.8438 10.889 90.7782 3.3623 82.0625 3.3623Z" fill="#D9E8EE"/>
<g filter="url(#filter0_d_1359_7358)">
<path d="M50.5 71.4485C64.6631 71.4485 76.1445 59.2176 76.1445 44.13C76.1445 29.0424 64.6631 16.8115 50.5 16.8115C36.3369 16.8115 24.8555 29.0424 24.8555 44.13C24.8555 59.2176 36.3369 71.4485 50.5 71.4485Z" fill="#FFC795" stroke="#008BB2" stroke-width="3.09619"/>
<path d="M68.6363 12.4622L31.3827 16.849C30.354 16.9702 29.6004 17.9174 29.6995 18.9648L31.1352 34.136C31.2343 35.1833 32.1486 35.9342 33.1774 35.813L70.4309 31.4262C71.4596 31.3051 72.2132 30.3578 72.1141 29.3105L70.6784 14.1393C70.5793 13.0919 69.665 12.3411 68.6363 12.4622Z" fill="#D9E8EE" stroke="#008BB2" stroke-width="1.5481"/>
<path d="M67.507 14.5245L32.8702 18.599C32.2532 18.6716 31.8011 19.2393 31.8606 19.8669L33.0809 32.7461C33.1404 33.3737 33.6889 33.8237 34.3059 33.7511L68.9427 29.6766C69.5598 29.604 70.0118 29.0363 69.9524 28.4087L68.732 15.5295C68.6726 14.9019 68.1241 14.4519 67.507 14.5245Z" fill="#008BB2"/>
<path d="M51.3387 28.7184C53.8142 28.4258 55.6276 26.1378 55.3889 23.6081C55.1503 21.0784 52.9501 19.2649 50.4745 19.5575C47.999 19.8502 46.1856 22.1381 46.4243 24.6679C46.6629 27.1976 48.8632 29.0111 51.3387 28.7184Z" fill="#D9E8EE"/>
<path d="M53.0277 26.1074L48.9654 26.5872L48.8732 25.6102L52.9354 25.1304L53.0277 26.1074ZM51.7361 24.0047L48.7413 24.3584L48.6532 23.4252L51.648 23.0714L51.7361 24.0047ZM50.3059 22.3638L50.6131 24.6825C50.6457 24.9313 50.6154 25.1462 50.5221 25.3269C50.4303 25.5056 50.2581 25.6689 50.0052 25.8169L49.2308 25.568C49.3094 25.5421 49.3656 25.4939 49.3994 25.4235C49.4349 25.3511 49.4546 25.2676 49.4586 25.173C49.4643 25.0783 49.4618 24.9826 49.4508 24.8862L49.1429 22.5012C49.0948 22.1471 49.1346 21.838 49.2624 21.5739C49.3919 21.3077 49.5853 21.0948 49.8426 20.9353C50.0997 20.7739 50.3975 20.6733 50.7361 20.6333C51.0218 20.5995 51.2795 20.6097 51.5091 20.6637C51.7385 20.716 51.9366 20.806 52.1032 20.9339C52.2716 21.0598 52.4023 21.2168 52.4955 21.4051C52.5887 21.5933 52.6419 21.8056 52.655 22.0421L51.5465 22.1426C51.5355 21.987 51.4965 21.8662 51.4295 21.78C51.3625 21.6939 51.2779 21.6356 51.1756 21.6052C51.0734 21.5749 50.9631 21.5667 50.8448 21.5807C50.7301 21.5942 50.6289 21.6329 50.5411 21.6968C50.4549 21.7586 50.3895 21.8457 50.3449 21.9579C50.3019 22.0682 50.2889 22.2035 50.3059 22.3638Z" fill="#FF9800"/>
<path d="M42.2148 47.0707C44.0669 47.0707 45.5684 44.8127 45.5684 42.0273C45.5684 39.2419 44.0669 36.9839 42.2148 36.9839C40.3627 36.9839 38.8613 39.2419 38.8613 42.0273C38.8613 44.8127 40.3627 47.0707 42.2148 47.0707Z" fill="#FF9800"/>
<path d="M58.7852 47.0707C60.6373 47.0707 62.1387 44.8127 62.1387 42.0273C62.1387 39.2419 60.6373 36.9839 58.7852 36.9839C56.9331 36.9839 55.4316 39.2419 55.4316 42.0273C55.4316 44.8127 56.9331 47.0707 58.7852 47.0707Z" fill="#FF9800"/>
<path d="M37.2832 52.5347C44.1875 60.9404 54.8398 60.9404 61.7441 52.5347" stroke="#FF9800" stroke-width="3.09619" stroke-linecap="round" stroke-linejoin="round"/>
<path d="M42.6625 77.1324V79.2533H39.7831V88H37.1358V79.2533H34.2563V77.1324H42.6625ZM46.6383 77.1324V88H43.9911V77.1324H46.6383ZM56.8391 80.6311C56.8391 81.2606 56.6946 81.8386 56.4056 82.3649C56.1166 82.881 55.6729 83.2989 55.0743 83.6189C54.4757 83.9388 53.7326 84.0988 52.845 84.0988H51.204V88H48.5568V77.1324H52.845C53.7119 77.1324 54.4447 77.282 55.0433 77.5813C55.6419 77.8806 56.0908 78.2934 56.3901 78.8198C56.6894 79.3461 56.8391 79.9499 56.8391 80.6311ZM52.6437 81.9934C53.1495 81.9934 53.5262 81.8747 53.7739 81.6373C54.0216 81.3999 54.1454 81.0645 54.1454 80.6311C54.1454 80.1976 54.0216 79.8622 53.7739 79.6248C53.5262 79.3874 53.1495 79.2687 52.6437 79.2687H51.204V81.9934H52.6437ZM62.1494 88.1084C61.3547 88.1084 60.6426 87.9794 60.0131 87.7213C59.3835 87.4633 58.8778 87.0815 58.4959 86.5758C58.1244 86.07 57.9283 85.4611 57.9076 84.749H60.7252C60.7665 85.1515 60.9058 85.4611 61.1432 85.6779C61.3805 85.8843 61.6902 85.9875 62.072 85.9875C62.4642 85.9875 62.7738 85.8997 63.0009 85.7243C63.2279 85.5385 63.3415 85.2857 63.3415 84.9657C63.3415 84.6974 63.2486 84.4755 63.0628 84.3C62.8874 84.1246 62.6655 83.9801 62.3971 83.8666C62.1391 83.7531 61.7676 83.624 61.2825 83.4796C60.5807 83.2628 60.0079 83.0461 59.5641 82.8294C59.1203 82.6126 58.7385 82.2927 58.4185 81.8695C58.0986 81.4464 57.9386 80.8942 57.9386 80.2131C57.9386 79.2016 58.305 78.4121 59.0378 77.8445C59.7705 77.2665 60.7252 76.9775 61.9017 76.9775C63.0989 76.9775 64.0639 77.2665 64.7967 77.8445C65.5294 78.4121 65.9216 79.2068 65.9732 80.2286H63.1093C63.0886 79.8776 62.9596 79.6042 62.7222 79.4081C62.4849 79.2016 62.1804 79.0984 61.8088 79.0984C61.4889 79.0984 61.2309 79.1862 61.0348 79.3616C60.8387 79.5267 60.7407 79.7693 60.7407 80.0892C60.7407 80.4401 60.9058 80.7136 61.2361 80.9097C61.5663 81.1058 62.0823 81.3174 62.7842 81.5444C63.486 81.7818 64.0536 82.0089 64.4871 82.2256C64.9308 82.4423 65.3127 82.7571 65.6326 83.1699C65.9526 83.5828 66.1126 84.1143 66.1126 84.7645C66.1126 85.3837 65.9526 85.9462 65.6326 86.4519C65.323 86.9576 64.8689 87.3601 64.2703 87.6594C63.6717 87.9587 62.9648 88.1084 62.1494 88.1084Z" fill="#D9E8EE"/>
<path d="M42.6625 77.1324H43.4366V76.3583H42.6625V77.1324ZM42.6625 79.2533V80.0273H43.4366V79.2533H42.6625ZM39.7831 79.2533V78.4792H39.009V79.2533H39.7831ZM39.7831 88V88.774H40.5571V88H39.7831ZM37.1358 88H36.3618V88.774H37.1358V88ZM37.1358 79.2533H37.9099V78.4792H37.1358V79.2533ZM34.2563 79.2533H33.4823V80.0273H34.2563V79.2533ZM34.2563 77.1324V76.3583H33.4823V77.1324H34.2563ZM42.6625 77.1324H41.8885V79.2533H42.6625H43.4366V77.1324H42.6625ZM42.6625 79.2533V78.4792H39.7831V79.2533V80.0273H42.6625V79.2533ZM39.7831 79.2533H39.009V88H39.7831H40.5571V79.2533H39.7831ZM39.7831 88V87.226H37.1358V88V88.774H39.7831V88ZM37.1358 88H37.9099V79.2533H37.1358H36.3618V88H37.1358ZM37.1358 79.2533V78.4792H34.2563V79.2533V80.0273H37.1358V79.2533ZM34.2563 79.2533H35.0304V77.1324H34.2563H33.4823V79.2533H34.2563ZM34.2563 77.1324V77.9064H42.6625V77.1324V76.3583H34.2563V77.1324ZM46.6383 77.1324H47.4124V76.3583H46.6383V77.1324ZM46.6383 88V88.774H47.4124V88H46.6383ZM43.9911 88H43.217V88.774H43.9911V88ZM43.9911 77.1324V76.3583H43.217V77.1324H43.9911ZM46.6383 77.1324H45.8643V88H46.6383H47.4124V77.1324H46.6383ZM46.6383 88V87.226H43.9911V88V88.774H46.6383V88ZM43.9911 88H44.7651V77.1324H43.9911H43.217V88H43.9911ZM43.9911 77.1324V77.9064H46.6383V77.1324V76.3583H43.9911V77.1324ZM56.4056 82.3649L57.081 82.7431L57.0841 82.7374L56.4056 82.3649ZM55.0743 83.6189L54.7094 82.9362V82.9362L55.0743 83.6189ZM51.204 84.0988V83.3247H50.43V84.0988H51.204ZM51.204 88V88.774H51.9781V88H51.204ZM48.5568 88H47.7827V88.774H48.5568V88ZM48.5568 77.1324V76.3583H47.7827V77.1324H48.5568ZM55.0433 77.5813L55.3895 76.889V76.889L55.0433 77.5813ZM51.204 79.2687V78.4947H50.43V79.2687H51.204ZM51.204 81.9934H50.43V82.7674H51.204V81.9934ZM56.8391 80.6311H56.065C56.065 81.1369 55.9503 81.5858 55.7271 81.9924L56.4056 82.3649L57.0841 82.7374C57.4389 82.0913 57.6131 81.3843 57.6131 80.6311H56.8391ZM56.4056 82.3649L55.7303 81.9867C55.5238 82.3555 55.1973 82.6755 54.7094 82.9362L55.0743 83.6189L55.4391 84.3015C56.1485 83.9224 56.7095 83.4065 57.081 82.7431L56.4056 82.3649ZM55.0743 83.6189L54.7094 82.9362C54.2523 83.1805 53.6432 83.3247 52.845 83.3247V84.0988V84.8728C53.822 84.8728 54.699 84.6971 55.4391 84.3015L55.0743 83.6189ZM52.845 84.0988V83.3247H51.204V84.0988V84.8728H52.845V84.0988ZM51.204 84.0988H50.43V88H51.204H51.9781V84.0988H51.204ZM51.204 88V87.226H48.5568V88V88.774H51.204V88ZM48.5568 88H49.3308V77.1324H48.5568H47.7827V88H48.5568ZM48.5568 77.1324V77.9064H52.845V77.1324V76.3583H48.5568V77.1324ZM52.845 77.1324V77.9064C53.626 77.9064 54.233 78.0415 54.6971 78.2736L55.0433 77.5813L55.3895 76.889C54.6564 76.5225 53.7978 76.3583 52.845 76.3583V77.1324ZM55.0433 77.5813L54.6971 78.2736C55.1736 78.5119 55.5017 78.8233 55.7173 79.2024L56.3901 78.8198L57.063 78.4372C56.68 77.7636 56.1102 77.2493 55.3895 76.889L55.0433 77.5813ZM56.3901 78.8198L55.7173 79.2024C55.9423 79.5981 56.065 80.067 56.065 80.6311H56.8391H57.6131C57.6131 79.8328 57.4366 79.0941 57.063 78.4372L56.3901 78.8198ZM52.6437 81.9934V82.7674C53.2555 82.7674 53.8619 82.6251 54.3094 82.1962L53.7739 81.6373L53.2383 81.0785C53.1904 81.1243 53.0434 81.2193 52.6437 81.2193V81.9934ZM53.7739 81.6373L54.3094 82.1962C54.7473 81.7765 54.9195 81.2166 54.9195 80.6311H54.1454H53.3714C53.3714 80.9124 53.2958 81.0234 53.2383 81.0785L53.7739 81.6373ZM54.1454 80.6311H54.9195C54.9195 80.0455 54.7473 79.4856 54.3094 79.0659L53.7739 79.6248L53.2383 80.1836C53.2958 80.2388 53.3714 80.3497 53.3714 80.6311H54.1454ZM53.7739 79.6248L54.3094 79.0659C53.8619 78.637 53.2555 78.4947 52.6437 78.4947V79.2687V80.0428C53.0434 80.0428 53.1904 80.1378 53.2383 80.1836L53.7739 79.6248ZM52.6437 79.2687V78.4947H51.204V79.2687V80.0428H52.6437V79.2687ZM51.204 79.2687H50.43V81.9934H51.204H51.9781V79.2687H51.204ZM51.204 81.9934V82.7674H52.6437V81.9934V81.2193H51.204V81.9934ZM60.0131 87.7213L59.7195 88.4376V88.4376L60.0131 87.7213ZM58.4959 86.5758L57.8721 87.0341L57.8782 87.0422L58.4959 86.5758ZM57.9076 84.749V83.9749H57.1108L57.1339 84.7714L57.9076 84.749ZM60.7252 84.749L61.4952 84.67L61.4239 83.9749H60.7252V84.749ZM61.1432 85.6779L60.6213 86.2495L60.6282 86.2558L60.6353 86.262L61.1432 85.6779ZM63.0009 85.7243L63.4742 86.3368L63.4827 86.3302L63.491 86.3234L63.0009 85.7243ZM63.0628 84.3L62.5155 84.8474L62.5233 84.8552L62.5313 84.8628L63.0628 84.3ZM62.3971 83.8666L62.0854 84.5752L62.0955 84.5795L62.3971 83.8666ZM61.2825 83.4796L61.0541 84.2192L61.0615 84.2214L61.2825 83.4796ZM59.5641 82.8294L59.2244 83.5249L59.5641 82.8294ZM58.4185 81.8695L59.0359 81.4027V81.4027L58.4185 81.8695ZM59.0378 77.8445L59.5118 78.4564L59.5171 78.4522L59.0378 77.8445ZM64.7967 77.8445L64.3173 78.4523L64.3227 78.4564L64.7967 77.8445ZM65.9732 80.2286V81.0026H66.7874L66.7463 80.1895L65.9732 80.2286ZM63.1092 80.2286L62.3365 80.274L62.3794 81.0026H63.1092V80.2286ZM62.7222 79.4081L62.2143 79.9922L62.2217 79.9986L62.2292 80.0048L62.7222 79.4081ZM61.0348 79.3616L61.5334 79.9537L61.5423 79.9462L61.5509 79.9385L61.0348 79.3616ZM61.2361 80.9097L61.6312 80.2441V80.2441L61.2361 80.9097ZM62.7841 81.5444L63.0322 80.8111L63.0224 80.808L62.7841 81.5444ZM64.4871 82.2256L64.1409 82.918L64.1474 82.9211L64.4871 82.2256ZM65.6326 83.1699L65.0208 83.6441V83.6441L65.6326 83.1699ZM65.6326 86.4519L64.9784 86.038L64.9725 86.0477L65.6326 86.4519ZM64.2703 87.6594L63.9242 86.9671V86.9671L64.2703 87.6594ZM62.1494 88.1084V87.3343C61.4387 87.3343 60.8287 87.2191 60.3066 87.0051L60.0131 87.7213L59.7195 88.4376C60.4565 88.7396 61.2707 88.8824 62.1494 88.8824V88.1084ZM60.0131 87.7213L60.3066 87.0051C59.7957 86.7957 59.4056 86.496 59.1136 86.1093L58.4959 86.5758L57.8782 87.0422C58.3499 87.6669 58.9713 88.1309 59.7195 88.4376L60.0131 87.7213ZM58.4959 86.5758L59.1197 86.1175C58.8535 85.7551 58.6981 85.3036 58.6814 84.7266L57.9076 84.749L57.1339 84.7714C57.1585 85.6187 57.3953 86.385 57.8721 87.034L58.4959 86.5758ZM57.9076 84.749V85.523H60.7252V84.749V83.9749H57.9076V84.749ZM60.7252 84.749L59.9552 84.828C60.0107 85.3689 60.2099 85.8739 60.6213 86.2495L61.1432 85.6779L61.6651 85.1062C61.6017 85.0483 61.5223 84.9341 61.4952 84.67L60.7252 84.749ZM61.1432 85.6779L60.6353 86.262C61.0421 86.6157 61.5452 86.7615 62.072 86.7615V85.9875V85.2134C61.8351 85.2134 61.719 85.1528 61.6511 85.0938L61.1432 85.6779ZM62.072 85.9875V86.7615C62.5734 86.7615 63.0695 86.6495 63.4742 86.3368L63.0009 85.7243L62.5276 85.1118C62.4781 85.15 62.355 85.2134 62.072 85.2134V85.9875ZM63.0009 85.7243L63.491 86.3234C63.9155 85.9761 64.1155 85.4939 64.1155 84.9657H63.3415H62.5674C62.5674 85.0775 62.5403 85.101 62.5107 85.1252L63.0009 85.7243ZM63.3415 84.9657H64.1155C64.1155 84.4964 63.9434 84.067 63.5943 83.7373L63.0628 84.3L62.5313 84.8628C62.5506 84.881 62.5557 84.8919 62.5578 84.8969C62.5603 84.9029 62.5674 84.9223 62.5674 84.9657H63.3415ZM63.0628 84.3L63.6101 83.7527C63.3531 83.4956 63.0431 83.2994 62.6987 83.1537L62.3971 83.8666L62.0955 84.5795C62.2878 84.6608 62.4217 84.7536 62.5155 84.8474L63.0628 84.3ZM62.3971 83.8666L62.7089 83.1581C62.4069 83.0252 61.9993 82.8854 61.5035 82.7377L61.2825 83.4796L61.0615 84.2214C61.5358 84.3627 61.8714 84.4809 62.0854 84.5751L62.3971 83.8666ZM61.2825 83.4796L61.5109 82.74C60.8308 82.5299 60.2989 82.3268 59.9038 82.1338L59.5641 82.8294L59.2244 83.5249C59.7169 83.7654 60.3306 83.9957 61.0541 84.2191L61.2825 83.4796ZM59.5641 82.8294L59.9038 82.1338C59.5773 81.9743 59.2881 81.7362 59.0359 81.4027L58.4185 81.8695L57.8011 82.3364C58.1888 82.8492 58.6634 83.2509 59.2244 83.5249L59.5641 82.8294ZM58.4185 81.8695L59.0359 81.4027C58.8433 81.1479 58.7127 80.7739 58.7127 80.2131H57.9386H57.1646C57.1646 81.0145 57.3538 81.7449 57.8011 82.3364L58.4185 81.8695ZM57.9386 80.2131H58.7127C58.7127 79.4159 58.9873 78.8627 59.5118 78.4564L59.0378 77.8445L58.5637 77.2326C57.6227 77.9615 57.1646 78.9874 57.1646 80.2131H57.9386ZM59.0378 77.8445L59.5171 78.4522C60.081 78.0075 60.8529 77.7516 61.9017 77.7516V76.9775V76.2035C60.5974 76.2035 59.46 76.5256 58.5584 77.2367L59.0378 77.8445ZM61.9017 76.9775V77.7516C62.9748 77.7516 63.7557 78.0092 64.3173 78.4522L64.7967 77.8445L65.276 77.2367C64.3722 76.5238 63.2231 76.2035 61.9017 76.2035V76.9775ZM64.7967 77.8445L64.3227 78.4564C64.8572 78.8705 65.1586 79.445 65.2002 80.2676L65.9732 80.2286L66.7463 80.1895C66.6846 78.9687 66.2017 77.9538 65.2707 77.2326L64.7967 77.8445ZM65.9732 80.2286V79.4545H63.1092V80.2286V81.0026H65.9732V80.2286ZM63.1092 80.2286L63.882 80.1831C63.8507 79.651 63.6425 79.1643 63.2152 78.8113L62.7222 79.4081L62.2292 80.0048C62.2767 80.044 62.3266 80.1043 62.3365 80.274L63.1092 80.2286ZM62.7222 79.4081L63.2301 78.824C62.8272 78.4735 62.3314 78.3244 61.8088 78.3244V79.0984V79.8725C62.0293 79.8725 62.1425 79.9297 62.2143 79.9922L62.7222 79.4081ZM61.8088 79.0984V78.3244C61.3416 78.3244 60.8858 78.4563 60.5187 78.7848L61.0348 79.3616L61.5509 79.9385C61.576 79.9161 61.6362 79.8725 61.8088 79.8725V79.0984ZM61.0348 79.3616L60.5362 78.7695C60.1233 79.1173 59.9666 79.6025 59.9666 80.0892H60.7407H61.5147C61.5147 80.0071 61.5274 79.9685 61.5318 79.9575C61.534 79.9522 61.5349 79.9514 61.5338 79.9529C61.5327 79.9545 61.532 79.9549 61.5334 79.9537L61.0348 79.3616ZM60.7407 80.0892H59.9666C59.9666 80.7431 60.3026 81.2557 60.8409 81.5753L61.2361 80.9097L61.6312 80.2441C61.5537 80.1981 61.5317 80.165 61.5271 80.1574C61.5245 80.1531 61.5147 80.138 61.5147 80.0892H60.7407ZM61.2361 80.9097L60.8409 81.5753C61.2472 81.8165 61.8296 82.0492 62.5459 82.2809L62.7841 81.5444L63.0224 80.808C62.3351 80.5856 61.8855 80.3951 61.6312 80.2441L61.2361 80.9097ZM62.7841 81.5444L62.5361 82.2777C63.2199 82.5089 63.7511 82.723 64.1409 82.9179L64.4871 82.2256L64.8332 81.5333C64.3561 81.2947 63.752 81.0547 63.0322 80.8112L62.7841 81.5444ZM64.4871 82.2256L64.1474 82.9211C64.4786 83.0829 64.7692 83.3194 65.0208 83.6441L65.6326 83.1699L66.2445 82.6958C65.8562 82.1948 65.3831 81.8018 64.8267 81.5301L64.4871 82.2256ZM65.6326 83.1699L65.0208 83.6441C65.212 83.8908 65.3385 84.243 65.3385 84.7645H66.1126H66.8866C66.8866 83.9855 66.6931 83.2747 66.2445 82.6958L65.6326 83.1699ZM66.1126 84.7645H65.3385C65.3385 85.2426 65.2173 85.6606 64.9785 86.0381L65.6326 86.4519L66.2868 86.8657C66.6879 86.2318 66.8866 85.5249 66.8866 84.7645H66.1126ZM65.6326 86.4519L64.9725 86.0477C64.7479 86.4145 64.4103 86.724 63.9242 86.9671L64.2703 87.6594L64.6165 88.3517C65.3275 87.9962 65.8981 87.5007 66.2928 86.8561L65.6326 86.4519ZM64.2703 87.6594L63.9242 86.9671C63.454 87.2022 62.8704 87.3343 62.1494 87.3343V88.1084V88.8824C63.0591 88.8824 63.8895 88.7153 64.6165 88.3517L64.2703 87.6594Z" fill="#008BB2"/>
</g>
</g>
<defs>
<filter id="filter0_d_1359_7358" x="9.37425" y="2.38476" width="82.251" height="105.075" filterUnits="userSpaceOnUse" color-interpolation-filters="sRGB">
<feFlood flood-opacity="0" result="BackgroundImageFix"/>
<feColorMatrix in="SourceAlpha" type="matrix" values="0 0 0 0 0 0 0 0 0 0 0 0 0 0 0 0 0 0 127 0" result="hardAlpha"/>
<feOffset dy="4.64429"/>
<feGaussianBlur stdDeviation="6.96644"/>
<feColorMatrix type="matrix" values="0 0 0 0 0 0 0 0 0 0 0 0 0 0 0 0 0 0 0.25 0"/>
<feBlend mode="normal" in2="BackgroundImageFix" result="effect1_dropShadow_1359_7358"/>
<feBlend mode="normal" in="SourceGraphic" in2="effect1_dropShadow_1359_7358" result="shape"/>
</filter>
<clipPath id="clip0_1359_7358">
<rect width="101" height="107.593" fill="white"/>
</clipPath>
</defs>
</svg>
