<svg width="82" height="82" viewBox="0 0 82 82" fill="none" xmlns="http://www.w3.org/2000/svg">
<g clip-path="url(#clip0_16_608)">
<path fill-rule="evenodd" clip-rule="evenodd" d="M38.2873 55.1998C38.4405 55.2183 38.596 55.2051 38.7439 55.161C38.8919 55.117 39.0292 55.043 39.1474 54.9437C39.2656 54.8444 39.3621 54.7219 39.4311 54.5838C39.5 54.4456 39.5398 54.2948 39.548 54.1407C39.5666 53.8348 39.4671 53.5335 39.27 53.299C39.0729 53.0644 38.7933 52.9144 38.4889 52.8799C36.8502 52.5579 35.1503 52.8486 33.7118 53.697C32.2733 54.5453 31.1963 55.8923 30.6852 57.4822C30.2069 59.5287 31.1294 61.8453 34.3649 63.5843C35.8711 64.2357 37.5386 64.4182 39.15 64.108C40.7614 63.7978 42.2419 63.0093 43.3986 61.8452C44.0105 61.248 44.4703 60.5128 44.7395 59.7013C45.0087 58.8898 45.0796 58.0256 44.946 57.181C44.8125 56.3365 44.4786 55.5363 43.9722 54.8474C43.4657 54.1585 42.8016 53.601 42.0354 53.2216C41.7626 53.0085 41.4176 52.9099 41.0734 52.9467C40.7291 52.9835 40.4128 53.1528 40.1912 53.4187C39.9696 53.6847 39.8603 54.0265 39.8863 54.3716C39.9123 54.7168 40.0716 55.0384 40.3304 55.2682C41.5946 56.4606 41.7996 57.6188 41.2529 58.6746C40.7028 59.3871 39.8936 59.8536 39.0014 59.9729C38.061 60.1758 37.0803 60.0679 36.2065 59.6654C34.8399 59.1187 34.2283 58.4696 34.6041 57.653C34.9385 56.949 35.4577 56.349 36.1064 55.9169C36.755 55.4849 37.5088 55.237 38.2873 55.1998Z" fill="#008BB2"/>
<path fill-rule="evenodd" clip-rule="evenodd" d="M41.8987 45.961C37.7973 46.8282 33.56 46.8282 29.4586 45.961C27.682 45.7218 25.878 45.551 24.1047 45.4826C22.8795 45.4 21.6501 45.4 20.425 45.4826C8.18645 46.6443 9.3447 47.4609 11.4255 58.4694C11.8013 60.4511 12.348 62.3917 12.8912 64.2982C13.7112 67.1956 14.6986 69.9904 15.5152 72.8911C15.5483 73.064 15.6153 73.2287 15.7124 73.3755C15.8095 73.5224 15.9348 73.6485 16.0809 73.7467C16.2271 73.8449 16.3912 73.9131 16.5639 73.9475C16.7365 73.9818 16.9143 73.9816 17.0869 73.9469C19.5255 71.5787 22.7862 70.2465 26.1855 70.2296C28.4678 70.1681 30.7501 70.315 33.0017 70.6737C35.4207 70.9812 37.8773 71.3229 40.3305 71.5279C44.6856 71.7872 49.0546 71.3724 53.283 70.2979C67.9064 66.3448 65.2824 62.4259 65.0774 59.4602C65.0443 58.8073 64.9643 58.1576 64.8382 57.5161C64.7154 56.8899 64.5441 56.2742 64.3257 55.6746C63.7825 54.2088 63.0684 52.9481 62.4534 51.5506C62.3605 51.3378 62.2076 51.1566 62.0135 51.0292C61.8193 50.9018 61.5923 50.8337 61.36 50.8331C61.2098 50.8622 61.0667 50.9206 60.9391 51.0051C60.8115 51.0896 60.7019 51.1984 60.6164 51.3254C60.531 51.4524 60.4716 51.5951 60.4415 51.7451C60.4113 51.8952 60.4112 52.0497 60.441 52.1998C60.3218 53.9243 60.3218 55.655 60.441 57.3795C60.5731 58.3749 60.7895 59.352 61.0901 60.311C61.3976 61.2676 61.7393 62.1525 62.0468 63.0716C59.1574 64.8943 55.9556 66.1662 52.6031 66.8231C48.7248 67.5359 44.764 67.6855 40.843 67.2673C38.3864 67.2673 35.9674 66.7548 33.5484 66.6181C30.9629 66.4496 28.3666 66.5757 25.8096 66.994C22.9461 67.5023 20.2397 68.6684 17.9035 70.4004C17.6643 68.1864 17.4251 65.9348 17.0835 63.5841C16.8785 62.32 16.6393 61.0968 16.366 59.8702C16.0926 58.6402 15.7544 57.4478 15.4127 56.2554C14.7635 54.1746 14.0153 52.1656 13.3012 50.1532C16.647 49.3344 20.1197 49.172 23.5273 49.6749C25.5705 49.8799 27.6512 50.0849 29.7285 50.1874C31.9289 50.2944 34.1224 50.2147 36.309 49.9482C38.5662 49.7281 40.7744 49.1527 42.852 48.2433C43.1689 48.1069 43.4225 47.8558 43.5619 47.5402C43.7013 47.2246 43.7162 46.8679 43.6036 46.5418C43.4437 46.2492 43.1798 46.0272 42.8642 45.9197C42.5485 45.8122 42.204 45.8269 41.8987 45.961ZM78.4058 17.8726C77.3808 15.8977 73.4277 13.2703 70.5304 8.5348C69.2333 6.4475 68.3429 4.13356 67.9064 1.71514C67.812 1.28528 67.5882 0.894668 67.265 0.595936C66.9419 0.297205 66.5349 0.104709 66.099 0.044386C65.6934 -0.0418869 65.2713 -0.0031707 64.8882 0.155425C64.5051 0.314021 64.1792 0.585042 63.9533 0.932719C61.2486 3.83767 58.269 6.47397 55.0563 8.80472C53.5064 10.1505 52.2632 11.8131 51.4107 13.6803C50.8948 14.8761 50.56 16.1403 50.4199 17.4318C50.2947 19.2198 50.3865 21.0164 50.6932 22.7823C50.6932 22.7823 50.6932 23.4315 50.864 24.0123L49.9415 23.4656C49.5272 23.1168 49.1607 22.7147 48.8516 22.2698C48.5493 21.8072 48.319 21.3015 48.1683 20.7699C47.83 19.7825 47.6592 18.7267 47.3859 17.7017C47.2519 17.0569 47.0808 16.4203 46.8734 15.7952C46.6905 15.2779 46.3109 14.8536 45.8171 14.6143C45.3233 14.3751 44.755 14.3403 44.2357 14.5174C43.8558 14.6435 43.5186 14.873 43.262 15.1802C42.6811 15.9569 42.147 16.7633 41.6595 17.5992C40.8958 19.0381 40.3337 20.5752 39.9888 22.1673C39.663 23.736 39.5595 25.3428 39.6813 26.9404C39.9137 32.4717 42.2133 37.7145 46.1251 41.6321C47.6892 43.1337 49.5484 44.294 51.5846 45.0392C53.6208 45.7844 55.7897 46.0983 57.9536 45.961C59.2546 46.5798 60.6715 46.9174 62.1117 46.9518C64.2659 46.9628 66.3413 46.1429 67.9064 44.6626C68.0586 44.9372 68.3051 45.1474 68.6004 45.2542C68.8956 45.361 69.2196 45.3572 69.5122 45.2435C72.0144 44.2159 74.2419 42.6178 76.0168 40.5765C77.7917 38.5353 79.0649 36.1074 79.7349 33.4867C81.2797 28.3009 80.8049 22.7226 78.4058 17.8726ZM76.8034 32.6667C76.3709 34.6223 75.5432 36.4688 74.371 38.0928C73.1988 39.7168 71.707 41.084 69.9871 42.1104C70.5535 41.0177 70.8666 39.8115 70.9033 38.5812C70.94 37.351 70.6992 36.1282 70.199 35.0037C69.4515 33.3381 68.1633 31.974 66.5431 31.1326C66.2464 31.0202 65.9192 31.0176 65.6207 31.1254C65.3222 31.2331 65.0721 31.4442 64.9156 31.7203C64.7592 31.9964 64.7067 32.3194 64.7677 32.6309C64.8287 32.9423 64.9992 33.2217 65.2482 33.4184C66.1977 34.0468 66.9067 34.978 67.2597 36.0605C67.6126 37.143 67.5889 38.3132 67.1923 39.3805C66.9078 40.372 66.2846 41.2323 65.4312 41.8117C64.5778 42.391 63.5482 42.6527 62.5217 42.5511C61.5522 42.5635 60.595 42.3331 59.7374 41.8807C58.8798 41.4283 58.1491 40.7685 57.612 39.9613C57.0538 39.1874 56.7534 38.2574 56.7534 37.3031C56.7534 36.3489 57.0538 35.4189 57.612 34.645C58.1518 33.8865 58.8795 33.2886 59.7269 32.9059C60.7356 32.4521 61.786 32.0974 62.8634 31.8467C63.0154 31.8224 63.1608 31.7673 63.2907 31.6847C63.4207 31.6021 63.5323 31.4937 63.6187 31.3663C63.7051 31.2389 63.7645 31.0951 63.7933 30.9439C63.822 30.7926 63.8195 30.6371 63.7859 30.4869C63.7277 30.1898 63.5559 29.9272 63.3071 29.7549C63.0582 29.5826 62.7519 29.5142 62.4534 29.5644C60.793 29.7224 59.1632 30.1135 57.612 30.7261C56.5032 31.1775 55.5122 31.8764 54.7146 32.7692C53.5324 34.0397 52.7886 35.6556 52.5924 37.3799C52.3962 39.1042 52.758 40.846 53.6247 42.3496C53.8525 42.6798 54.103 42.9976 54.3764 43.3028C52.0341 42.7579 49.8873 41.5781 48.1717 39.893C44.9698 36.4226 43.2031 31.8671 43.2278 27.1454C43.1929 25.8606 43.3308 24.577 43.6378 23.329C43.6378 22.8848 43.877 22.4406 44.0478 21.9965V22.3381C44.5466 24.2549 45.6468 25.9598 47.1809 27.2137C48.0077 27.8401 48.9063 28.3401 49.8766 28.7136C49.8766 28.7136 52.3981 29.4311 53.283 29.6361C53.7592 29.7427 54.2549 29.7232 54.7211 29.5793C55.1873 29.4355 55.6079 29.1724 55.9412 28.8161C56.3163 28.2164 56.4732 27.5056 56.3854 26.8037C56.3854 25.6421 54.988 23.0898 54.8855 22.4406C54.6995 21.3136 54.6081 20.173 54.6121 19.0308C54.6565 17.9648 54.8855 16.9159 55.2955 15.9319C55.9241 14.6336 56.8056 13.4753 57.8853 12.5221C59.966 10.5438 62.4534 8.83889 64.7015 6.86405C65.3097 8.38105 66.0602 9.82403 66.9531 11.193C69.9871 15.7269 73.9402 18.1801 75.0301 20.0558C77.0834 23.9229 77.666 28.403 76.6701 32.6667H76.8034Z" fill="#008BB2"/>
<path fill-rule="evenodd" clip-rule="evenodd" d="M75.3716 64.4043C75.5333 64.2617 75.6559 64.0801 75.7276 63.8768C75.7994 63.6735 75.818 63.4552 75.7816 63.2426C75.7816 61.5719 75.5766 59.8328 75.3374 58.268C75.3374 57.5846 75.0641 56.9013 74.8932 56.2214C74.7335 55.5404 74.5046 54.8775 74.2099 54.2431C73.5983 52.6749 72.7817 51.3116 72.0301 49.8117C71.9905 49.6635 71.922 49.5246 71.8284 49.4031C71.7349 49.2815 71.6182 49.1797 71.4851 49.1034C71.352 49.0272 71.2051 48.9781 71.053 48.9589C70.9008 48.9397 70.7463 48.9509 70.5985 48.9917C70.4477 49.0273 70.3059 49.0936 70.1819 49.1865C70.0579 49.2793 69.9543 49.3967 69.8777 49.5314C69.8011 49.666 69.753 49.815 69.7365 49.9691C69.7201 50.1231 69.7355 50.2789 69.7819 50.4267C69.8229 52.0827 69.9482 53.7306 70.1577 55.3706C70.2557 56.0631 70.4037 56.7441 70.6019 57.4138C70.7727 58.063 71.0461 58.7121 71.2818 59.3579C71.8968 60.892 72.5801 62.3235 73.1917 63.8235C73.246 64.0373 73.3568 64.2326 73.5125 64.3889C73.6682 64.5451 73.863 64.6567 74.0766 64.7118C70.0254 68.0177 65.4058 70.5579 60.4441 72.208C55.4831 73.8719 50.2625 74.6099 45.035 74.3912C41.2186 74.3912 37.4671 73.4004 33.6848 73.1612C31.9051 72.9743 30.1106 72.9743 28.3309 73.1612C25.9319 73.5595 23.5871 74.2348 21.3438 75.1736C18.3781 76.3695 15.4808 77.8318 12.6176 79.1267C11.9343 75.2761 11.3911 71.4255 10.6086 67.6057C10.2999 65.9556 9.92378 64.3187 9.48114 62.6994C9.07114 61.196 8.62697 59.2895 8.11789 57.8238C6.85714 54.0757 5.39139 50.4609 3.8573 46.7777C3.8573 46.7777 3.8573 46.5727 3.58397 46.4702C5.89867 44.8755 8.48726 43.7208 11.2202 43.0638C13.3887 42.5187 15.6031 42.1755 17.8349 42.0388C20.1036 41.8642 22.3824 41.8642 24.6511 42.0388C27.856 42.2438 31.4674 42.9613 34.8772 42.9955C37.3875 43.0988 39.8837 42.5714 42.1376 41.4614C42.4449 41.3065 42.6824 41.0413 42.8028 40.719C42.9231 40.3966 42.9174 40.0407 42.7868 39.7223C42.7133 39.5626 42.6089 39.419 42.4796 39.2998C42.3504 39.1806 42.1988 39.0881 42.0336 39.0278C41.8685 38.9674 41.693 38.9404 41.5174 38.9482C41.3417 38.9559 41.1693 38.9984 41.0101 39.0731C39.0964 39.7354 37.0504 39.923 35.0481 39.6198C31.6382 39.244 28.2284 38.1882 25.1295 37.6791C22.6151 37.3902 20.0759 37.3902 17.5616 37.6791C15.8806 37.8932 14.2326 38.2565 12.6176 38.769C8.50253 39.9218 4.74908 42.1042 1.71164 45.1104C1.49569 45.328 1.37451 45.6221 1.37451 45.9287C1.37451 46.2352 1.49569 46.5294 1.71164 46.747H1.88247C1.76253 46.8849 1.68309 47.0534 1.65294 47.2337C1.62279 47.414 1.6431 47.5991 1.71164 47.7685C2.5658 51.585 3.21155 55.4048 4.02814 59.2212C4.3698 60.8578 4.7798 62.4602 5.1898 64.0626C5.59639 65.665 6.07472 67.469 6.5838 68.9006C7.7113 72.618 8.93789 76.3319 9.99364 80.0834C10.0623 80.3385 10.2135 80.5637 10.4237 80.7238C10.6339 80.8838 10.8911 80.9698 11.1553 80.9683V81.2416C11.2699 81.5334 11.4946 81.7686 11.7809 81.8964C12.0672 82.0242 12.3922 82.0345 12.686 81.925C15.8225 80.8316 19.0615 79.4342 22.3346 78.5151C24.4023 77.8535 26.5414 77.4406 28.7067 77.2851C29.7067 77.2168 30.7066 77.2168 31.7066 77.2851C36.138 77.5926 40.4669 78.8568 44.9325 79.0276C50.6725 79.0413 56.3578 77.9787 61.7015 75.8911C66.9466 73.7534 71.7532 70.668 75.8806 66.7891C76.1279 66.5396 76.2666 66.2025 76.2666 65.8513C76.2666 65.5 76.1279 65.1629 75.8806 64.9134C75.7739 64.6898 75.5944 64.5125 75.3716 64.4043Z" fill="#008BB2"/>
</g>
<defs>
<clipPath id="clip0_16_608">
<rect width="82" height="82" fill="white"/>
</clipPath>
</defs>
</svg>
