<svg width="18" height="21" viewBox="0 0 18 21" fill="none" xmlns="http://www.w3.org/2000/svg">
<path d="M16.75 6.24219C16.75 6.70181 16.6595 7.15694 16.4836 7.58158C16.3077 8.00622 16.0499 8.39206 15.7249 8.71706C15.3999 9.04207 15.014 9.29987 14.5894 9.47577C14.1648 9.65166 13.7096 9.74219 13.25 9.74219C12.7904 9.74219 12.3352 9.65166 11.9106 9.47577C11.486 9.29987 11.1001 9.04207 10.7751 8.71706C10.4501 8.39206 10.1923 8.00622 10.0164 7.58158C9.84053 7.15694 9.75 6.70181 9.75 6.24219C9.75 5.31393 10.1187 4.42369 10.7751 3.76731C11.4315 3.11094 12.3217 2.74219 13.25 2.74219C14.1783 2.74219 15.0685 3.11094 15.7249 3.76731C16.3813 4.42369 16.75 5.31393 16.75 6.24219Z" stroke="black" stroke-width="1.5" stroke-linecap="square"/>
<path d="M11.581 3.16496C11.3226 2.37355 10.7907 1.7001 10.0806 1.26537C9.37063 0.83064 8.52896 0.66308 7.70658 0.792739C6.88421 0.922397 6.13493 1.34079 5.59311 1.97289C5.05129 2.60499 4.75239 3.40943 4.75 4.24196C4.7499 4.84852 4.90744 5.44469 5.20716 5.97202C5.50689 6.49935 5.93851 6.93974 6.45971 7.25C6.98092 7.56026 7.5738 7.72975 8.18024 7.74184C8.78668 7.75392 9.38585 7.6082 9.919 7.31896" stroke="black" stroke-width="1.5" stroke-linecap="round"/>
<path d="M0.75 11.7422H3.145C3.439 11.7422 3.729 11.8082 3.992 11.9362L6.034 12.9242C6.297 13.0512 6.587 13.1172 6.882 13.1172H7.924C8.932 13.1172 9.75 13.9082 9.75 14.8842C9.75 14.9242 9.723 14.9582 9.684 14.9692L7.143 15.6722C6.68705 15.7981 6.20087 15.7541 5.775 15.5482L3.592 14.4922M9.75 14.2422L14.343 12.8312C14.7429 12.7085 15.1713 12.7152 15.567 12.8505C15.9628 12.9857 16.3058 13.2425 16.547 13.5842C16.916 14.0942 16.766 14.8262 16.228 15.1362L8.713 19.4732C8.47802 19.6091 8.21781 19.6958 7.94824 19.728C7.67866 19.7601 7.40537 19.7371 7.145 19.6602L0.75 17.7622" stroke="black" stroke-width="1.5" stroke-linecap="round" stroke-linejoin="round"/>
</svg>
