<svg width="16" height="20" viewBox="0 0 16 20" fill="none" xmlns="http://www.w3.org/2000/svg">
<path d="M13.61 20C12.9473 20 12.385 19.7426 11.923 19.2278C11.4617 18.7122 11.231 18.0863 11.231 17.35C11.231 17.2389 11.275 16.9585 11.363 16.5089L4.166 11.7611C3.95 12.0381 3.68567 12.2556 3.373 12.4133C3.06033 12.5711 2.72467 12.65 2.366 12.65C1.70867 12.65 1.15 12.39 0.69 11.87C0.23 11.35 0 10.7267 0 10C0 9.27333 0.23 8.65 0.69 8.13C1.15 7.61 1.70867 7.35 2.366 7.35C2.724 7.35 3.05967 7.42889 3.373 7.58667C3.68633 7.74444 3.95067 7.96222 4.166 8.24L11.364 3.51222C11.3173 3.36852 11.2837 3.22593 11.263 3.08444C11.2417 2.94222 11.231 2.79704 11.231 2.64889C11.231 1.91333 11.4633 1.28778 11.928 0.772222C12.3927 0.257407 12.9567 0 13.62 0C14.2833 0 14.846 0.258148 15.308 0.774444C15.77 1.29074 16.0007 1.91741 16 2.65444C15.9993 3.39148 15.7677 4.01667 15.305 4.53C14.8423 5.04333 14.279 5.29963 13.615 5.29889C13.2537 5.29889 12.9203 5.21667 12.615 5.05222C12.3097 4.88778 12.0497 4.66667 11.835 4.38889L4.636 9.13667C4.68267 9.28037 4.71633 9.42333 4.737 9.56556C4.75833 9.70704 4.769 9.85185 4.769 10C4.769 10.1481 4.75833 10.293 4.737 10.4344C4.71567 10.5759 4.68233 10.7189 4.637 10.8633L11.835 15.6111C12.0503 15.3333 12.3103 15.1122 12.615 14.9478C12.9203 14.7833 13.2537 14.7011 13.615 14.7011C14.2777 14.7011 14.841 14.9589 15.305 15.4744C15.7683 15.9915 16 16.6185 16 17.3556C16 18.0926 15.7677 18.7178 15.303 19.2311C14.8383 19.7444 14.2733 20.0007 13.61 20ZM13.615 18.8889C14.0077 18.8889 14.3367 18.7415 14.602 18.4467C14.8673 18.1518 15 17.7867 15 17.3511C15 16.9156 14.8673 16.55 14.602 16.2544C14.3367 15.9589 14.008 15.8115 13.616 15.8122C13.224 15.813 12.895 15.9604 12.629 16.2544C12.363 16.5485 12.2303 16.9137 12.231 17.35C12.2317 17.7863 12.3643 18.1518 12.629 18.4467C12.8937 18.7415 13.2217 18.8889 13.615 18.8889ZM2.366 11.5378C2.76333 11.5378 3.09667 11.3904 3.366 11.0956C3.63467 10.8007 3.769 10.4356 3.769 10C3.769 9.56444 3.63467 9.19926 3.366 8.90444C3.09733 8.60963 2.764 8.46222 2.366 8.46222C1.97867 8.46222 1.65433 8.60963 1.393 8.90444C1.13167 9.19926 1.00067 9.56444 1 10C0.999333 10.4356 1.13033 10.8011 1.393 11.0967C1.65567 11.3922 1.98 11.5393 2.366 11.5378ZM13.616 4.18778C14.008 4.18778 14.3367 4.04037 14.602 3.74556C14.8673 3.45074 15 3.08518 15 2.64889C15 2.21259 14.8673 1.84741 14.602 1.55333C14.3367 1.25926 14.008 1.11185 13.616 1.11111C13.224 1.11037 12.895 1.25778 12.629 1.55333C12.363 1.84889 12.2303 2.21444 12.231 2.65C12.2317 3.08556 12.3643 3.45074 12.629 3.74556C12.8937 4.04037 13.2227 4.18778 13.616 4.18778Z" fill="white"/>
</svg>
