<svg width="20" height="18" viewBox="0 0 20 18" fill="none" xmlns="http://www.w3.org/2000/svg">
<path d="M19.6628 2.21477C19.5781 1.60522 19.2485 1.04418 18.7355 0.636553C18.2225 0.22893 17.5613 0.00263952 16.8755 0H3.12447C2.44043 0.00232402 1.78063 0.2272 1.26788 0.632772C0.755137 1.03834 0.424379 1.59698 0.337174 2.2047L7.91227e-07 4.69127C-0.000349778 5.17927 0.115799 5.66169 0.340656 6.10618C0.565514 6.55067 0.893882 6.94695 1.30374 7.26846V15.4832C1.30374 16.1507 1.59977 16.7909 2.1267 17.2629C2.65364 17.7348 3.36832 18 4.11352 18H15.8809C16.6261 18 17.3407 17.7348 17.8677 17.2629C18.3946 16.7909 18.6906 16.1507 18.6906 15.4832V7.26846C19.1015 6.94742 19.4309 6.55134 19.6568 6.10683C19.8826 5.66231 19.9997 5.17965 20 4.69127L19.6628 2.21477ZM12.2563 16.9933H7.76061V12.8859C7.76061 12.4854 7.93823 12.1013 8.25439 11.8181C8.57055 11.5349 8.99936 11.3758 9.44648 11.3758H10.5704C11.0175 11.3758 11.4463 11.5349 11.7625 11.8181C12.0786 12.1013 12.2563 12.4854 12.2563 12.8859V16.9933ZM17.5724 15.4832C17.5724 15.8837 17.3947 16.2678 17.0786 16.551C16.7624 16.8342 16.3336 16.9933 15.8865 16.9933H13.3802V12.8859C13.3802 12.2184 13.0841 11.5783 12.5572 11.1063C12.0303 10.6343 11.3156 10.3691 10.5704 10.3691H9.44648C8.70128 10.3691 7.9866 10.6343 7.45966 11.1063C6.93273 11.5783 6.6367 12.2184 6.6367 12.8859V16.9933H4.11352C3.6664 16.9933 3.23759 16.8342 2.92143 16.551C2.60527 16.2678 2.42765 15.8837 2.42765 15.4832V7.86242C2.86967 8.02509 3.34344 8.10722 3.8213 8.10403C4.37298 8.10619 4.9185 8.00005 5.41947 7.79308C5.92044 7.5861 6.3647 7.28333 6.72099 6.90604C6.74605 6.88352 6.77583 6.86564 6.80861 6.85345C6.8414 6.84125 6.87655 6.83498 6.91206 6.83498C6.94756 6.83498 6.98271 6.84125 7.0155 6.85345C7.04828 6.86564 7.07806 6.88352 7.10312 6.90604C7.45941 7.28333 7.90367 7.5861 8.40464 7.79308C8.90561 8.00005 9.45113 8.10619 10.0028 8.10403C10.5568 8.10566 11.1047 7.99937 11.6083 7.79251C12.1119 7.58565 12.5592 7.28317 12.9194 6.90604C12.9424 6.88392 12.9702 6.86626 13.0011 6.85414C13.0321 6.84202 13.0654 6.8357 13.0992 6.83557C13.1346 6.83549 13.1698 6.84168 13.2026 6.85377C13.2353 6.86586 13.2651 6.88362 13.2903 6.90604C13.6465 7.28333 14.0908 7.5861 14.5918 7.79308C15.0927 8.00005 15.6383 8.10619 16.1899 8.10403C16.664 8.10589 17.1338 8.02378 17.5724 7.86242V15.4832ZM16.1899 7.09731C15.8018 7.09867 15.418 7.02468 15.0649 6.88043C14.7118 6.73619 14.3977 6.52512 14.1444 6.26174C14.0179 6.12627 13.8597 6.01729 13.6811 5.9425C13.5024 5.86771 13.3076 5.82892 13.1104 5.82886H13.0992C12.9029 5.82768 12.7086 5.8649 12.53 5.93793C12.3514 6.01096 12.1928 6.11804 12.0652 6.25168C11.8045 6.50635 11.4875 6.7097 11.1344 6.84881C10.7813 6.98792 10.3998 7.05976 10.0141 7.05976C9.6283 7.05976 9.24677 6.98792 8.89366 6.84881C8.54056 6.7097 8.2236 6.50635 7.96291 6.25168C7.83213 6.11885 7.67129 6.01247 7.49107 5.9396C7.31086 5.86673 7.1154 5.82904 6.91767 5.82904C6.71995 5.82904 6.52449 5.86673 6.34427 5.9396C6.16406 6.01247 6.00322 6.11885 5.87244 6.25168C5.51771 6.62244 5.04612 6.88847 4.51957 7.01485C3.99302 7.14122 3.43611 7.12204 2.92195 6.95982C2.40778 6.79759 1.9604 6.4999 1.63851 6.10583C1.31663 5.71176 1.13529 5.23972 1.11829 4.75168L1.45547 2.33557C1.50951 1.9707 1.70856 1.63551 2.01614 1.39144C2.32372 1.14737 2.7192 1.01078 3.13009 1.00671H16.8755C17.2878 1.0065 17.6858 1.14161 17.9944 1.38647C18.303 1.63133 18.5007 1.96898 18.5502 2.33557L18.8761 4.71141C18.8702 5.34691 18.5838 5.95449 18.0794 6.40151C17.5751 6.84853 16.8938 7.09867 16.1843 7.09731H16.1899Z" fill="white"/>
</svg>
