<svg width="20" height="20" viewBox="0 0 20 20" fill="none" xmlns="http://www.w3.org/2000/svg">
<path d="M14.375 3.33333V7.08333C10.8267 5.64583 8.88666 5.90167 8.78999 6.785C8.69332 7.66833 9.97332 8.185 10.625 8.33333C10.625 8.33333 15.2083 9.16667 15.2083 12.9167C15.2083 16.6667 11.0417 17.5 8.95832 17.5C7.29166 17.5 5.48582 16.8317 4.79166 16.5542V12.6358C5.45832 13.0158 7.14166 13.8025 8.54166 13.9133C10.2917 14.0517 10.76 13.6467 10.8783 13.1367C11.095 12.2058 9.53499 11.6617 8.54166 11.25C5.87499 10.25 4.79166 9.16667 4.79166 7.08333C4.79166 3.33333 8.12499 2.5 10.2083 2.5C12.2083 2.5 13.8192 3.05583 14.375 3.33333Z" stroke="white" stroke-width="1.25" stroke-linejoin="round"/>
</svg>
