<svg width="44" height="44" viewBox="0 0 44 44" fill="none" xmlns="http://www.w3.org/2000/svg">
<g clip-path="url(#clip0_16_586)">
<path d="M44 22C44 34.1501 34.1501 44 22 44C9.85111 44 0 34.1501 0 22C0 9.85111 9.85111 0 22 0C34.1501 0 44 9.85111 44 22Z" fill="#FF9800"/>
<path d="M8.55566 25.9883C8.55566 30.8332 14.173 36.9883 22.0001 36.9883C29.8272 36.9883 35.4446 30.8772 35.4446 25.9883C35.4446 25.9883 22.8153 29.3567 8.55566 25.9883Z" fill="#664500"/>
<path d="M14.6665 28.1147V36.6226C14.6665 40.2893 17.1109 43.956 21.9998 43.956C26.8887 43.956 29.3332 40.2893 29.3332 36.6226V28.1649C21.6442 29.744 14.6665 28.1147 14.6665 28.1147Z" fill="#008BB2"/>
<path d="M15.0139 15.07C14.0899 14.7131 13.216 14.3758 13.216 13.8869C13.216 13.0815 14.2965 13.0399 14.5128 13.0399C15.2767 13.0399 15.6568 13.3259 15.9917 13.5789C16.2484 13.7732 16.5148 13.9737 16.8851 13.9737C17.5745 13.9737 17.8886 13.4885 17.8886 13.0375C17.8886 12.1379 16.7861 11.5024 15.6177 11.2359V10.7556C15.6041 10.4604 15.4772 10.1817 15.2635 9.97765C15.0497 9.77355 14.7656 9.65967 14.47 9.65967C14.1745 9.65967 13.8903 9.77355 13.6766 9.97765C13.4629 10.1817 13.336 10.4604 13.3224 10.7556V11.2762C11.9241 11.6832 11.0674 12.7111 11.0674 14.0079C11.0674 15.6102 12.6477 16.2678 14.0423 16.8471C15.0408 17.2627 15.9844 17.655 15.9844 18.2674C15.9844 18.7147 15.4221 19.1987 14.514 19.1987C13.5974 19.1987 13.0718 18.832 12.6074 18.5094C12.2871 18.2857 11.984 18.0742 11.6223 18.0742C11.0967 18.0742 10.686 18.5167 10.686 19.0814C10.686 19.9112 11.8239 20.7387 13.3224 21.0296V21.604C13.3224 21.9084 13.4433 22.2003 13.6585 22.4155C13.8737 22.6308 14.1657 22.7517 14.47 22.7517C14.7744 22.7517 15.0663 22.6308 15.2816 22.4155C15.4968 22.2003 15.6177 21.9084 15.6177 21.604L15.6116 20.9954C17.1956 20.6104 18.1318 19.5018 18.1318 17.9899C18.133 16.2739 16.4036 15.6066 15.0139 15.07ZM32.6261 18.0107C32.6261 16.2947 30.8967 15.6274 29.507 15.0908C28.583 14.7339 27.7104 14.3966 27.7104 13.9077C27.7104 13.1022 28.7908 13.0607 29.0071 13.0607C29.771 13.0607 30.1499 13.3467 30.486 13.5997C30.7439 13.794 31.0091 13.9945 31.3783 13.9945C32.0688 13.9945 32.3829 13.5092 32.3829 13.0582C32.3829 12.1575 31.2805 11.5231 30.112 11.2567V10.7776C30.1023 10.4795 29.9771 10.1969 29.7628 9.98952C29.5485 9.78211 29.262 9.66616 28.9638 9.66616C28.6655 9.66616 28.379 9.78211 28.1647 9.98952C27.9504 10.1969 27.8252 10.4795 27.8155 10.7776V11.2982C26.4185 11.7052 25.5605 12.7331 25.5605 14.0299C25.5605 15.6322 27.1408 16.2898 28.5354 16.8691C29.5339 17.2847 30.4775 17.677 30.4775 18.2894C30.4775 18.7367 29.9165 19.2207 29.0084 19.2207C28.0917 19.2207 27.5661 18.854 27.1029 18.5314C26.7815 18.3077 26.4784 18.0962 26.1178 18.0962C25.591 18.0962 25.1804 18.5387 25.1804 19.1034C25.1804 19.9332 26.3183 20.7607 27.8155 21.0516V21.626C27.8155 21.9306 27.9365 22.2226 28.1518 22.438C28.3671 22.6533 28.6592 22.7743 28.9638 22.7743C29.2683 22.7743 29.5604 22.6533 29.7757 22.438C29.9911 22.2226 30.112 21.9306 30.112 21.626L30.1084 21.0174C31.6911 20.6299 32.6261 19.5226 32.6261 18.0107Z" fill="#664500"/>
<path d="M25.6301 37.9735C25.6301 36.3015 23.9447 35.65 22.5905 35.1269C21.6897 34.7798 20.8378 34.4498 20.8378 33.9743C20.8378 33.1885 21.8901 33.1493 22.1016 33.1493C22.8459 33.1493 23.2162 33.4292 23.5438 33.6749C23.7943 33.8643 24.0547 34.0599 24.4152 34.0599C25.0875 34.0599 25.3942 33.5857 25.3942 33.1469C25.3942 32.2706 24.3199 31.6509 23.1796 31.3906V30.9225C23.1661 30.6346 23.0423 30.3629 22.8338 30.164C22.6253 29.965 22.3482 29.854 22.06 29.854C21.7718 29.854 21.4947 29.965 21.2862 30.164C21.0777 30.3629 20.9539 30.6346 20.9405 30.9225V31.4297C19.5777 31.8257 18.7417 32.8291 18.7417 34.0929C18.7417 35.6549 20.2829 36.2966 21.642 36.8612C22.6161 37.2658 23.5352 37.6483 23.5352 38.2448C23.5352 38.6811 22.9877 39.1529 22.1016 39.1529C21.2081 39.1529 20.696 38.796 20.2438 38.4795C19.9321 38.2619 19.6363 38.0553 19.2843 38.0553C18.7722 38.0553 18.3701 38.488 18.3701 39.038C18.3701 39.8483 19.4787 40.6538 20.9392 40.9373V41.4983C20.9392 41.7953 21.0572 42.08 21.2671 42.29C21.4771 42.4999 21.7619 42.6179 22.0588 42.6179C22.3557 42.6179 22.6405 42.4999 22.8504 42.29C23.0604 42.08 23.1783 41.7953 23.1783 41.4983L23.1747 40.9043C24.7183 40.5267 25.6301 39.4462 25.6301 37.9735Z" fill="white"/>
</g>
<defs>
<clipPath id="clip0_16_586">
<rect width="44" height="44" fill="white"/>
</clipPath>
</defs>
</svg>
