<svg width="44" height="44" viewBox="0 0 44 44" fill="none" xmlns="http://www.w3.org/2000/svg">
<g clip-path="url(#clip0_16_560)">
<path fill-rule="evenodd" clip-rule="evenodd" d="M39.875 22C39.875 26.7407 37.9917 31.2873 34.6395 34.6395C31.2873 37.9917 26.7407 39.875 22 39.875C17.2593 39.875 12.7127 37.9917 9.36047 34.6395C6.00825 31.2873 4.125 26.7407 4.125 22C4.125 17.2593 6.00825 12.7127 9.36047 9.36047C12.7127 6.00825 17.2593 4.125 22 4.125C26.7407 4.125 31.2873 6.00825 34.6395 9.36047C37.9917 12.7127 39.875 17.2593 39.875 22ZM44 22C44 27.8348 41.6822 33.4305 37.5564 37.5564C33.4305 41.6822 27.8348 44 22 44C16.1652 44 10.5695 41.6822 6.44365 37.5564C2.31785 33.4305 0 27.8348 0 22C0 16.1652 2.31785 10.5695 6.44365 6.44365C10.5695 2.31785 16.1652 0 22 0C27.8348 0 33.4305 2.31785 37.5564 6.44365C41.6822 10.5695 44 16.1652 44 22ZM14.443 12.925C15.3903 12.38 16.5151 12.2332 17.5705 12.5167C18.6259 12.8003 19.5257 13.4911 20.0723 14.4375C20.2517 14.7531 20.299 15.127 20.2039 15.4774C20.1088 15.8278 19.8789 16.1263 19.5645 16.3079C19.25 16.4894 18.8765 16.5392 18.5255 16.4464C18.1745 16.3536 17.8744 16.1257 17.6908 15.8125C17.5701 15.604 17.3968 15.4308 17.1882 15.3104C16.9796 15.1899 16.7431 15.1263 16.5022 15.1261C16.2613 15.1258 16.0245 15.1888 15.8157 15.3088C15.6068 15.4288 15.4331 15.6015 15.312 15.8098C15.1289 16.1252 14.8281 16.355 14.4756 16.4486C14.1231 16.5422 13.7478 16.4919 13.4324 16.3089C13.1169 16.1258 12.8871 15.8249 12.7935 15.4724C12.6999 15.1199 12.7502 14.7447 12.9333 14.4293C13.2968 13.8039 13.8157 13.2851 14.443 12.925ZM22 33C24.9174 33 27.7153 31.8411 29.7782 29.7782C31.8411 27.7153 33 24.9174 33 22H11C11 24.9174 12.1589 27.7153 14.2218 29.7782C16.2847 31.8411 19.0826 33 22 33ZM25.443 12.925C26.3903 12.38 27.5151 12.2332 28.5705 12.5167C29.6259 12.8003 30.5257 13.4911 31.0723 14.4375C31.164 14.5939 31.2238 14.767 31.2484 14.9466C31.273 15.1263 31.2617 15.309 31.2154 15.4844C31.169 15.6597 31.0885 15.8241 30.9783 15.9681C30.8682 16.1122 30.7306 16.233 30.5736 16.3237C30.4165 16.4143 30.2431 16.4731 30.0633 16.4964C29.8835 16.5198 29.7008 16.5074 29.5258 16.4599C29.3508 16.4124 29.1869 16.3307 29.0436 16.2196C28.9003 16.1085 28.7804 15.9701 28.6907 15.8125C28.5701 15.604 28.3968 15.4308 28.1882 15.3104C27.9796 15.1899 27.7431 15.1263 27.5022 15.1261C27.2613 15.1258 27.0245 15.1888 26.8157 15.3088C26.6068 15.4288 26.4331 15.6015 26.312 15.8098C26.1289 16.1252 25.8281 16.355 25.4756 16.4486C25.1231 16.5422 24.7478 16.4919 24.4324 16.3089C24.1169 16.1258 23.8871 15.8249 23.7935 15.4724C23.6999 15.1199 23.7502 14.7447 23.9333 14.4293C24.2968 13.8039 24.8184 13.2851 25.4458 12.925H25.443Z" fill="#FF9800"/>
</g>
<defs>
<clipPath id="clip0_16_560">
<rect width="44" height="44" fill="white"/>
</clipPath>
</defs>
</svg>
