<svg width="38" height="44" viewBox="0 0 38 44" fill="none" xmlns="http://www.w3.org/2000/svg">
<path d="M37.1747 38.594C37.0436 38.9942 36.7308 39.4381 36.2179 39.5876C35.8476 39.6957 23.5955 43.2446 23.2183 43.3435C22.1396 43.631 21.3898 43.4194 20.8976 42.9847C20.1478 42.3246 11.4837 36.4297 0.554127 35.8731C-0.614273 35.8156 -0.041573 31.3858 3.29803 31.3858C5.58653 31.3858 12.2772 33.0487 13.0845 32.2391C13.7078 31.6135 13.9907 27.9174 11.3894 21.4682L6.15693 8.50313C5.94624 7.91811 5.97048 7.2742 6.22456 6.70667C6.47864 6.13914 6.94278 5.69216 7.51947 5.45964C8.09617 5.22711 8.74053 5.22714 9.31721 5.45971C9.89389 5.69228 10.358 6.13929 10.612 6.70683L15.1798 18.0205C15.6237 19.1245 16.1711 19.5431 16.7668 19.3131C17.2981 19.1107 17.4085 18.7565 17.0865 17.6824L12.3807 3.81803C12.2791 3.51963 12.2372 3.20411 12.2576 2.88952C12.2779 2.57493 12.3601 2.26743 12.4994 1.98462C12.6386 1.7018 12.8323 1.44921 13.0692 1.24128C13.3062 1.03336 13.5818 0.874172 13.8803 0.772835C14.1788 0.669872 14.4947 0.627025 14.8099 0.646767C15.125 0.666508 15.4331 0.748447 15.7164 0.887857C15.9997 1.02727 16.2527 1.22139 16.4606 1.45903C16.6685 1.69667 16.8273 1.97312 16.9278 2.27243L21.4036 15.456C21.7992 16.6152 22.2178 17.2224 22.8802 16.9418C23.2781 16.7739 23.2505 16.1644 23.1447 15.6331L20.0029 3.04983C19.9165 2.74045 19.8931 2.41688 19.9339 2.09826C19.9746 1.77964 20.0789 1.47243 20.2404 1.19478C20.402 0.917134 20.6175 0.674686 20.8744 0.481764C21.1312 0.288841 21.4241 0.149359 21.7358 0.0715597C22.0474 -0.00623947 22.3715 -0.0207771 22.6889 0.0288059C23.0063 0.078389 23.3105 0.191087 23.5836 0.360239C23.8566 0.529392 24.093 0.751566 24.2788 1.01363C24.4645 1.2757 24.5959 1.57235 24.665 1.88603L27.563 13.4826C27.9862 15.1869 28.3749 15.801 29.0488 15.6331C29.7365 15.4652 29.7043 14.8994 29.61 14.4325L27.6044 4.47813C27.5225 3.92435 27.6562 3.36024 27.9781 2.90218C28.2999 2.44413 28.7853 2.12708 29.3341 2.01644C29.8828 1.9058 30.4531 2.01001 30.9273 2.30758C31.4015 2.60514 31.7434 3.07336 31.8824 3.61563L34.0628 14.4509L34.0651 14.4532V14.4555L35.3715 20.953C35.6567 22.1789 35.9833 23.3335 36.4065 24.4651C38.902 31.1098 37.6002 37.2623 37.1747 38.594Z" fill="#FF9800"/>
</svg>
