<svg width="44" height="44" viewBox="0 0 44 44" fill="none" xmlns="http://www.w3.org/2000/svg">
<g clip-path="url(#clip0_16_577)">
<path fill-rule="evenodd" clip-rule="evenodd" d="M22 0C27.8348 0 33.4305 2.31785 37.5563 6.44365C41.6821 10.5695 44 16.1652 44 22C44 27.8348 41.6821 33.4305 37.5563 37.5563C33.4305 41.6821 27.8348 44 22 44C16.1652 44 10.5695 41.6821 6.44365 37.5563C2.31785 33.4305 0 27.8348 0 22C0 16.1652 2.31785 10.5695 6.44365 6.44365C10.5695 2.31785 16.1652 0 22 0Z" fill="#FFC795"/>
<path fill-rule="evenodd" clip-rule="evenodd" d="M5.94922 14.0581C5.99322 11.1258 9.28379 8.40723 12.4015 12.2352C15.5224 8.40723 18.8129 11.1258 18.8569 14.0581C18.8569 18.4172 13.6398 22.0001 12.4015 22.0001C11.1695 22.0001 5.94922 18.4172 5.94922 14.0581ZM31.5949 12.2352C34.7158 8.40723 38.0064 11.1258 38.0504 14.0581C38.0504 18.4172 32.8332 22.0001 31.5981 22.0001C30.3629 22.0001 25.1426 18.4172 25.1426 14.0581C25.1866 11.1258 28.4772 8.40723 31.5949 12.2352ZM32.2926 26.3875C31.7896 26.2521 31.2534 26.322 30.8019 26.5819C30.3504 26.8419 30.0207 27.2705 29.8852 27.7735C29.4138 29.5032 28.3866 31.0299 26.9619 32.1183C25.5372 33.2066 23.7942 33.7962 22.0014 33.7962C20.2085 33.7962 18.4655 33.2066 17.0408 32.1183C15.6161 31.0299 14.5889 29.5032 14.1175 27.7735C13.9804 27.2724 13.6503 26.846 13.1995 26.5877C12.7486 26.3293 12.2139 26.2601 11.7122 26.3952C11.2105 26.5303 10.7827 26.8587 10.5226 27.3084C10.2624 27.7582 10.191 28.2927 10.3241 28.7949C11.0202 31.3589 12.5408 33.6225 14.6512 35.2364C16.7617 36.8502 19.3446 37.7246 22.0014 37.7246C24.6581 37.7246 27.2411 36.8502 29.3515 35.2364C31.4619 33.6225 32.9825 31.3589 33.6786 28.7949C33.8141 28.2919 33.7442 27.7557 33.4842 27.3042C33.2243 26.8527 32.7957 26.523 32.2926 26.3875Z" fill="#FF9800"/>
</g>
<defs>
<clipPath id="clip0_16_577">
<rect width="44" height="44" fill="white"/>
</clipPath>
</defs>
</svg>
