<svg width="44" height="46" viewBox="0 0 44 46" fill="none" xmlns="http://www.w3.org/2000/svg">
<g clip-path="url(#clip0_16_558)">
<path d="M22 0.71875C9.84677 0.71875 0 10.6914 0 23C0 35.3086 9.84677 45.2812 22 45.2812C34.1532 45.2812 44 35.3086 44 23C44 10.6914 34.1532 0.71875 22 0.71875ZM22 40.9688C12.2153 40.9688 4.25806 32.9098 4.25806 23C4.25806 13.0902 12.2153 5.03125 22 5.03125C31.7847 5.03125 39.7419 13.0902 39.7419 23C39.7419 32.9098 31.7847 40.9688 22 40.9688ZM14.9032 21.5625C16.4734 21.5625 17.7419 20.2777 17.7419 18.6875C17.7419 17.0973 16.4734 15.8125 14.9032 15.8125C13.3331 15.8125 12.0645 17.0973 12.0645 18.6875C12.0645 20.2777 13.3331 21.5625 14.9032 21.5625ZM29.0968 21.5625C30.6669 21.5625 31.9355 20.2777 31.9355 18.6875C31.9355 17.0973 30.6669 15.8125 29.0968 15.8125C27.5266 15.8125 26.2581 17.0973 26.2581 18.6875C26.2581 20.2777 27.5266 21.5625 29.0968 21.5625ZM29.4516 28.0852C27.6065 30.3313 24.8831 31.625 22 31.625C19.1169 31.625 16.3935 30.3402 14.5484 28.0852C13.7944 27.1688 12.446 27.052 11.55 27.8066C10.6452 28.5703 10.5298 29.927 11.275 30.8434C13.9363 34.0777 17.8484 35.9285 22 35.9285C26.1516 35.9285 30.0637 34.0777 32.725 30.8434C33.479 29.927 33.3548 28.5703 32.45 27.8066C31.554 27.052 30.2056 27.1688 29.4516 28.0852Z" fill="#FF9800"/>
</g>
<defs>
<clipPath id="clip0_16_558">
<rect width="44" height="46" fill="white"/>
</clipPath>
</defs>
</svg>
