<svg width="46" height="46" viewBox="0 0 46 46" fill="none" xmlns="http://www.w3.org/2000/svg">
<path d="M16.9177 27.8382C17.0772 27.7138 17.2602 27.6214 17.4563 27.5663C17.6523 27.5112 17.8574 27.4945 18.06 27.5171C18.2627 27.5397 18.4587 27.6011 18.6371 27.698C18.8154 27.7949 18.9726 27.9252 19.0995 28.0816C19.7849 28.9274 20.6568 29.6103 21.6498 30.0792C22.6428 30.5481 23.7312 30.7909 24.8335 30.7892C25.9361 30.7904 27.0248 30.547 28.0178 30.0774C29.0108 29.6078 29.8825 28.9241 30.5675 28.0775C30.8242 27.762 31.1982 27.5594 31.6074 27.5141C32.0166 27.4688 32.4273 27.5847 32.7493 27.8362C33.0713 28.0876 33.2782 28.4541 33.3244 28.855C33.3705 29.2559 33.2523 29.6584 32.9956 29.9739C32.02 31.1783 30.7791 32.1511 29.3657 32.8194C27.9522 33.4878 26.4029 33.8344 24.8335 33.8335C23.2642 33.8347 21.715 33.4883 20.3016 32.8203C18.8882 32.1523 17.6472 31.18 16.6713 29.9759C16.5444 29.8196 16.4501 29.6403 16.3938 29.4482C16.3376 29.2562 16.3205 29.0551 16.3436 28.8566C16.3667 28.6581 16.4294 28.466 16.5283 28.2913C16.6271 28.1165 16.7602 27.9626 16.9197 27.8382M14.386 14.8335C13.9743 14.8335 13.5794 14.9938 13.2882 15.279C12.9971 15.5643 12.8335 15.9512 12.8335 16.3546V20.3177C12.8335 21.8855 14.1335 23.1571 15.7357 23.1571H19.4286C19.8094 23.1574 20.1865 23.0842 20.5383 22.9416C20.8902 22.799 21.2099 22.5899 21.4792 22.3262C21.7485 22.0625 21.9622 21.7494 22.108 21.4048C22.2537 21.0601 22.3288 20.6908 22.3288 20.3177V17.8758H27.3382V20.3177C27.3382 20.6908 27.4133 21.0601 27.559 21.4048C27.7048 21.7494 27.9185 22.0625 28.1878 22.3262C28.4571 22.5899 28.7768 22.799 29.1287 22.9416C29.4805 23.0842 29.8576 23.1574 30.2384 23.1571H33.9313C35.5335 23.1571 36.8335 21.8855 36.8335 20.3177V16.3546C36.8335 15.9512 36.6699 15.5643 36.3788 15.279C36.0876 14.9938 35.6927 14.8335 35.281 14.8335H14.386Z" fill="#FF9800"/>
<path fill-rule="evenodd" clip-rule="evenodd" d="M3.8335 22.8335C3.8335 11.2352 13.2352 1.8335 24.8335 1.8335C36.4318 1.8335 45.8335 11.2352 45.8335 22.8335C45.8335 34.4318 36.4318 43.8335 24.8335 43.8335C13.2352 43.8335 3.8335 34.4318 3.8335 22.8335ZM24.8335 4.9835C20.0994 4.9835 15.5592 6.86412 12.2116 10.2116C8.86412 13.5592 6.9835 18.0994 6.9835 22.8335C6.9835 27.5676 8.86412 32.1078 12.2116 35.4554C15.5592 38.8029 20.0994 40.6835 24.8335 40.6835C29.5676 40.6835 34.1078 38.8029 37.4554 35.4554C40.8029 32.1078 42.6835 27.5676 42.6835 22.8335C42.6835 18.0994 40.8029 13.5592 37.4554 10.2116C34.1078 6.86412 29.5676 4.9835 24.8335 4.9835Z" fill="#FF9800"/>
</svg>
