<svg width="16" height="16" viewBox="0 0 16 16" fill="none" xmlns="http://www.w3.org/2000/svg">
<g clip-path="url(#clip0_101_1396)">
<path d="M8.41153 15.3494C8.14676 15.4516 7.85345 15.4516 7.58868 15.3494V15.3494C5.5209 14.5386 3.7454 13.1236 2.49369 11.2888C1.24198 9.45409 0.572146 7.28475 0.571533 5.06369V1.71512C0.571533 1.41202 0.691941 1.12133 0.906268 0.907001C1.1206 0.692673 1.41129 0.572266 1.71439 0.572266H14.2858C14.5889 0.572266 14.8796 0.692673 15.0939 0.907001C15.3083 1.12133 15.4287 1.41202 15.4287 1.71512V5.05227C15.4304 7.27527 14.7616 9.44711 13.5097 11.2841C12.2579 13.1211 10.4811 14.5379 8.41153 15.3494V15.3494Z" stroke="black" stroke-linecap="round" stroke-linejoin="round"/>
<path d="M8.00021 9.14397C9.57817 9.14397 10.8574 7.86479 10.8574 6.28683C10.8574 4.70887 9.57817 3.42969 8.00021 3.42969C6.42225 3.42969 5.14307 4.70887 5.14307 6.28683C5.14307 7.86479 6.42225 9.14397 8.00021 9.14397Z" stroke="black" stroke-linecap="round" stroke-linejoin="round"/>
<path d="M3.71436 12.7901C4.25059 12.1821 4.91008 11.6951 5.649 11.3615C6.38791 11.028 7.18935 10.8555 8.00007 10.8555C8.81079 10.8555 9.61222 11.028 10.3511 11.3615C11.0901 11.6951 11.7495 12.1821 12.2858 12.7901" stroke="black" stroke-linecap="round" stroke-linejoin="round"/>
</g>
<defs>
<clipPath id="clip0_101_1396">
<rect width="16" height="16" fill="white"/>
</clipPath>
</defs>
</svg>
